<?xml version="1.0" encoding="UTF-8"?><svg id="_レイヤー_2" xmlns="http://www.w3.org/2000/svg" xmlns:xlink="http://www.w3.org/1999/xlink" viewBox="0 0 512 512"><defs><style>.cls-1{fill:none;}.cls-2{fill:#29ca7a;}.cls-3{fill:#2631bd;}.cls-4{fill:#4556ce;}.cls-5{fill:#fff;}.cls-6{clip-path:url(#clippath);}</style><clipPath id="clippath"><rect class="cls-1" x=".86" y=".86" width="510.29" height="510.29"/></clipPath></defs><g id="_レイヤー_1-2"><rect class="cls-3" width="512" height="512"/><g class="cls-6"><rect class="cls-4" x=".86" y="398.1" width="510.29" height="112.02"/><path class="cls-2" d="M413.64,269.53c-4.06-18.6-10.94-33.19-22.31-47.29-1.28-1.59-3.31-2.55-5.59-2.65-2.42-.11-4.76.77-6.28,2.34-11.77,12.18-27.4,20.67-45.21,24.56-34.11,7.44-70.02-7.39-96.06-39.69-3.41-3.93-7.06-5.25-11.77-4.22l-10.14,2.21c-4.82,1.05-9.12-1.09-10.7-5.33-.97-2.87-.75-5.72.59-8.09,1.23-2.17,3.26-3.67,5.73-4.2l24.84-5.42c3.56-.78,8.64-1.11,11.63,4.91,14.66,31.28,49.1,48.76,81.9,41.6,38.47-8.4,64.69-44.28,57.26-78.35-7.18-32.89-25.9-60.48-52.71-77.68-26.32-16.89-58.02-22.43-89.27-15.61l-50.19,10.95c-35.56,7.76-66.13,29.11-86.09,60.12-20,31.08-26.73,67.85-18.94,103.54,4.04,18.49,11.49,34.97,22.17,48.97,1.35,1.81,3.28,2.9,5.44,3.08,2.36.2,4.76-.66,6.57-2.38,12.72-11.84,28.81-19.84,46.54-23.2,45.31-8.28,90.42,22.85,100.58,69.39l4.54,20.78c1,4.56-.92,8.53-5.13,10.61-2.61,1.22-5.52,1.18-8.03-.07-2.6-1.29-4.45-3.68-5.08-6.56l-4.54-20.78c-8.09-37.06-44.2-61.58-80.5-54.66-.63.12-1.25.25-1.87.38-39.3,8.58-59.83,45.44-54.36,75.16,3.29,16.93,10.18,32.59,20.1,46.17h139.44v40.16c0,9.32,7.63,16.95,16.95,16.95s16.95-7.63,16.95-16.95v-40.16h30.39v40.16c0,9.32,7.63,16.95,16.95,16.95h0c9.32,0,16.95-7.63,16.95-16.95v-40.18c33.33-32.05,49.79-80.16,39.23-128.55Z"/><path class="cls-5" d="M320.8,111.63c-4.81-25.8-26.97-43.32-49.5-39.12-15.57,2.9-27.23,15.42-31.37,31.39-9.61-13.41-25-20.88-40.57-17.98-22.53,4.2-36.9,28.52-32.09,54.32,4.81,25.8,26.97,43.32,49.5,39.12,15.57-2.9,27.23-15.42,31.37-31.39,9.61,13.41,25,20.88,40.57,17.98,22.53-4.2,36.9-28.52,32.09-54.32Z"/><ellipse cx="224.96" cy="131.7" rx="18.55" ry="26.49" transform="translate(-20.32 43.44) rotate(-10.56)"/><ellipse cx="298.64" cy="117.97" rx="18.55" ry="26.49" transform="translate(-16.56 56.71) rotate(-10.56)"/></g></g></svg>