<?xml version="1.0" encoding="UTF-8"?><svg id="_レイヤー_2" xmlns="http://www.w3.org/2000/svg" xmlns:xlink="http://www.w3.org/1999/xlink" viewBox="0 0 32 32"><defs><style>.cls-1{fill:none;}.cls-2{fill:#29ca7a;}.cls-3{fill:#2631bd;}.cls-4{fill:#4556ce;}.cls-5{clip-path:url(#clippath-1);}.cls-6{fill:#fff;}.cls-7{clip-path:url(#clippath);}</style><clipPath id="clippath"><circle class="cls-1" cx="16" cy="16" r="16"/></clipPath><clipPath id="clippath-1"><rect class="cls-1" x=".05" y=".05" width="31.89" height="31.89"/></clipPath></defs><g id="_レイヤー_1-2"><g class="cls-7"><rect class="cls-3" width="32" height="32"/><g class="cls-5"><rect class="cls-4" x=".05" y="24.88" width="31.89" height="7"/><path class="cls-2" d="M25.85,16.85c-.25-1.16-.68-2.07-1.39-2.96-.08-.1-.21-.16-.35-.17-.15,0-.3.05-.39.15-.74.76-1.71,1.29-2.83,1.53-2.13.47-4.38-.46-6-2.48-.21-.25-.44-.33-.74-.26l-.63.14c-.3.07-.57-.07-.67-.33-.06-.18-.05-.36.04-.51.08-.14.2-.23.36-.26l1.55-.34c.22-.05.54-.07.73.31.92,1.96,3.07,3.05,5.12,2.6,2.4-.52,4.04-2.77,3.58-4.9-.45-2.06-1.62-3.78-3.29-4.86-1.64-1.06-3.63-1.4-5.58-.98l-3.14.68c-2.22.48-4.13,1.82-5.38,3.76-1.25,1.94-1.67,4.24-1.18,6.47.25,1.16.72,2.19,1.39,3.06.08.11.2.18.34.19.15.01.3-.04.41-.15.79-.74,1.8-1.24,2.91-1.45,2.83-.52,5.65,1.43,6.29,4.34l.28,1.3c.06.29-.06.53-.32.66-.16.08-.35.07-.5,0-.16-.08-.28-.23-.32-.41l-.28-1.3c-.51-2.32-2.76-3.85-5.03-3.42-.04,0-.08.02-.12.02-2.46.54-3.74,2.84-3.4,4.7.21,1.06.64,2.04,1.26,2.89h8.71v2.51c0,.58.48,1.06,1.06,1.06s1.06-.48,1.06-1.06v-2.51h1.9v2.51c0,.58.48,1.06,1.06,1.06h0c.58,0,1.06-.48,1.06-1.06v-2.51c2.08-2,3.11-5.01,2.45-8.03Z"/><path class="cls-6" d="M20.05,6.98c-.3-1.61-1.69-2.71-3.09-2.44-.97.18-1.7.96-1.96,1.96-.6-.84-1.56-1.31-2.54-1.12-1.41.26-2.31,1.78-2.01,3.4.3,1.61,1.69,2.71,3.09,2.44.97-.18,1.7-.96,1.96-1.96.6.84,1.56,1.31,2.54,1.12,1.41-.26,2.31-1.78,2.01-3.4Z"/><ellipse cx="14.06" cy="8.23" rx="1.16" ry="1.66" transform="translate(-1.27 2.72) rotate(-10.56)"/><ellipse cx="18.67" cy="7.37" rx="1.16" ry="1.66" transform="translate(-1.03 3.54) rotate(-10.56)"/></g></g></g></svg>