<?xml version="1.0" encoding="UTF-8"?><svg id="_レイヤー_2" xmlns="http://www.w3.org/2000/svg" xmlns:xlink="http://www.w3.org/1999/xlink" viewBox="0 0 180 180"><defs><style>.cls-1{fill:none;}.cls-2{fill:#29ca7a;}.cls-3{fill:#2631bd;}.cls-4{fill:#4556ce;}.cls-5{fill:#fff;}.cls-6{clip-path:url(#clippath);}</style><clipPath id="clippath"><rect class="cls-1" x=".3" y=".3" width="179.4" height="179.4"/></clipPath></defs><g id="_レイヤー_1-2"><rect class="cls-3" width="180" height="180"/><g class="cls-6"><rect class="cls-4" x=".3" y="139.96" width="179.4" height="39.38"/><path class="cls-2" d="M145.42,94.76c-1.43-6.54-3.85-11.67-7.84-16.63-.45-.56-1.16-.9-1.96-.93-.85-.04-1.67.27-2.21.82-4.14,4.28-9.63,7.27-15.89,8.63-11.99,2.62-24.62-2.6-33.77-13.95-1.2-1.38-2.48-1.85-4.14-1.49l-3.56.78c-1.69.37-3.21-.38-3.76-1.87-.34-1.01-.26-2.01.21-2.84.43-.76,1.15-1.29,2.01-1.48l8.73-1.91c1.25-.27,3.04-.39,4.09,1.73,5.15,11,17.26,17.14,28.79,14.62,13.53-2.95,22.74-15.57,20.13-27.55-2.52-11.56-9.1-21.26-18.53-27.31-9.25-5.94-20.4-7.89-31.38-5.49l-17.64,3.85c-12.5,2.73-23.25,10.23-30.27,21.14-7.03,10.93-9.4,23.85-6.66,36.4,1.42,6.5,4.04,12.29,7.79,17.22.47.63,1.15,1.02,1.91,1.08.83.07,1.67-.23,2.31-.84,4.47-4.16,10.13-6.98,16.36-8.16,15.93-2.91,31.79,8.03,35.36,24.4l1.59,7.31c.35,1.6-.32,3-1.8,3.73-.92.43-1.94.41-2.82-.02-.91-.45-1.56-1.29-1.79-2.31l-1.59-7.31c-2.84-13.03-15.54-21.65-28.3-19.22-.22.04-.44.09-.66.13-13.82,3.01-21.03,15.97-19.11,26.42,1.16,5.95,3.58,11.46,7.07,16.23h49.02v14.12c0,3.28,2.68,5.96,5.96,5.96s5.96-2.68,5.96-5.96v-14.12h10.68v14.12c0,3.28,2.68,5.96,5.96,5.96h0c3.28,0,5.96-2.68,5.96-5.96v-14.12c11.72-11.27,17.5-28.18,13.79-45.19Z"/><path class="cls-5" d="M112.78,39.24c-1.69-9.07-9.48-15.23-17.4-13.75-5.47,1.02-9.57,5.42-11.03,11.03-3.38-4.71-8.79-7.34-14.26-6.32-7.92,1.48-12.97,10.03-11.28,19.1,1.69,9.07,9.48,15.23,17.4,13.75,5.47-1.02,9.57-5.42,11.03-11.03,3.38,4.71,8.79,7.34,14.26,6.32,7.92-1.48,12.97-10.03,11.28-19.1Z"/><ellipse cx="79.09" cy="46.3" rx="6.52" ry="9.31" transform="translate(-7.14 15.27) rotate(-10.56)"/><ellipse cx="104.99" cy="41.47" rx="6.52" ry="9.31" transform="translate(-5.82 19.94) rotate(-10.56)"/></g></g></svg>