<?xml version="1.0" encoding="UTF-8"?><svg id="_レイヤー_2" xmlns="http://www.w3.org/2000/svg" xmlns:xlink="http://www.w3.org/1999/xlink" viewBox="0 0 256 256"><defs><style>.cls-1{fill:none;}.cls-2{fill:#29ca7a;}.cls-3{fill:#2631bd;}.cls-4{fill:#4556ce;}.cls-5{clip-path:url(#clippath-1);}.cls-6{fill:#fff;}.cls-7{clip-path:url(#clippath);}</style><clipPath id="clippath"><circle class="cls-1" cx="128" cy="128" r="128"/></clipPath><clipPath id="clippath-1"><rect class="cls-1" x=".43" y=".43" width="255.14" height="255.14"/></clipPath></defs><g id="_レイヤー_1-2"><g class="cls-7"><rect class="cls-3" width="256" height="256"/><g class="cls-5"><rect class="cls-4" x=".43" y="199.05" width="255.14" height="56.01"/><path class="cls-2" d="M206.82,134.77c-2.03-9.3-5.47-16.59-11.16-23.65-.64-.79-1.66-1.28-2.79-1.33-1.21-.05-2.38.39-3.14,1.17-5.88,6.09-13.7,10.34-22.6,12.28-17.06,3.72-35.01-3.7-48.03-19.85-1.71-1.97-3.53-2.63-5.89-2.11l-5.07,1.11c-2.41.53-4.56-.54-5.35-2.67-.48-1.43-.38-2.86.3-4.05.62-1.09,1.63-1.83,2.86-2.1l12.42-2.71c1.78-.39,4.32-.56,5.81,2.45,7.33,15.64,24.55,24.38,40.95,20.8,19.24-4.2,32.35-22.14,28.63-39.18-3.59-16.44-12.95-30.24-26.36-38.84-13.16-8.44-29.01-11.22-44.64-7.81l-25.09,5.48c-17.78,3.88-33.07,14.56-43.05,30.06-10,15.54-13.36,33.92-9.47,51.77,2.02,9.25,5.75,17.48,11.09,24.48.68.9,1.64,1.45,2.72,1.54,1.18.1,2.38-.33,3.29-1.19,6.36-5.92,14.4-9.92,23.27-11.6,22.65-4.14,45.21,11.42,50.29,34.7l2.27,10.39c.5,2.28-.46,4.26-2.57,5.3-1.3.61-2.76.59-4.01-.03-1.3-.65-2.22-1.84-2.54-3.28l-2.27-10.39c-4.04-18.53-22.1-30.79-40.25-27.33-.31.06-.63.12-.93.19-19.65,4.29-29.91,22.72-27.18,37.58,1.64,8.47,5.09,16.29,10.05,23.09h69.72v20.08c0,4.66,3.81,8.48,8.48,8.48s8.48-3.81,8.48-8.48v-20.08h15.19v20.08c0,4.66,3.81,8.48,8.48,8.48h0c4.66,0,8.48-3.81,8.48-8.48v-20.09c16.66-16.03,24.89-40.08,19.61-64.28Z"/><path class="cls-6" d="M160.4,55.81c-2.4-12.9-13.49-21.66-24.75-19.56-7.79,1.45-13.62,7.71-15.69,15.69-4.81-6.7-12.5-10.44-20.29-8.99-11.27,2.1-18.45,14.26-16.05,27.16,2.4,12.9,13.49,21.66,24.75,19.56,7.79-1.45,13.62-7.71,15.69-15.69,4.81,6.7,12.5,10.44,20.29,8.99,11.27-2.1,18.45-14.26,16.05-27.16Z"/><ellipse cx="112.48" cy="65.85" rx="9.28" ry="13.25" transform="translate(-10.16 21.72) rotate(-10.56)"/><ellipse cx="149.32" cy="58.98" rx="9.28" ry="13.25" transform="translate(-8.28 28.35) rotate(-10.56)"/></g></g></g></svg>