<?xml version="1.0" encoding="UTF-8"?><svg id="_レイヤー_2" xmlns="http://www.w3.org/2000/svg" xmlns:xlink="http://www.w3.org/1999/xlink" viewBox="0 0 192 192"><defs><style>.cls-1{fill:none;}.cls-2{fill:#29ca7a;}.cls-3{fill:#2631bd;}.cls-4{fill:#4556ce;}.cls-5{fill:#fff;}.cls-6{clip-path:url(#clippath);}</style><clipPath id="clippath"><rect class="cls-1" x=".32" y=".32" width="191.36" height="191.36"/></clipPath></defs><g id="_レイヤー_1-2"><rect class="cls-3" width="192" height="192"/><g class="cls-6"><rect class="cls-4" x=".32" y="149.29" width="191.36" height="42.01"/><path class="cls-2" d="M155.12,101.08c-1.52-6.98-4.1-12.45-8.37-17.73-.48-.59-1.24-.96-2.09-1-.91-.04-1.79.29-2.36.88-4.41,4.57-10.27,7.75-16.95,9.21-12.79,2.79-26.26-2.77-36.02-14.88-1.28-1.47-2.65-1.97-4.42-1.58l-3.8.83c-1.81.39-3.42-.41-4.01-2-.36-1.07-.28-2.14.22-3.03.46-.81,1.22-1.37,2.15-1.58l9.31-2.03c1.34-.29,3.24-.42,4.36,1.84,5.5,11.73,18.41,18.28,30.71,15.6,14.43-3.15,24.26-16.6,21.47-29.38-2.69-12.33-9.71-22.68-19.77-29.13-9.87-6.33-21.76-8.41-33.48-5.86l-18.82,4.11c-13.33,2.91-24.8,10.92-32.28,22.55-7.5,11.65-10.02,25.44-7.1,38.83,1.51,6.93,4.31,13.11,8.31,18.36.51.68,1.23,1.09,2.04,1.16.88.08,1.78-.25,2.47-.89,4.77-4.44,10.8-7.44,17.45-8.7,16.99-3.11,33.91,8.57,37.72,26.02l1.7,7.79c.37,1.71-.35,3.2-1.92,3.98-.98.46-2.07.44-3.01-.03-.97-.48-1.67-1.38-1.9-2.46l-1.7-7.79c-3.03-13.9-16.57-23.09-30.19-20.5-.23.04-.47.09-.7.14-14.74,3.22-22.43,17.04-20.38,28.18,1.23,6.35,3.82,12.22,7.54,17.32h52.29v15.06c0,3.5,2.86,6.36,6.36,6.36s6.36-2.86,6.36-6.36v-15.06h11.4v15.06c0,3.5,2.86,6.36,6.36,6.36h0c3.5,0,6.36-2.86,6.36-6.36v-15.07c12.5-12.02,18.67-30.06,14.71-48.21Z"/><path class="cls-5" d="M120.3,41.86c-1.8-9.68-10.11-16.24-18.56-14.67-5.84,1.09-10.21,5.78-11.76,11.77-3.6-5.03-9.38-7.83-15.21-6.74-8.45,1.57-13.84,10.69-12.03,20.37,1.8,9.68,10.11,16.24,18.56,14.67,5.84-1.09,10.21-5.78,11.76-11.77,3.6,5.03,9.38,7.83,15.21,6.74,8.45-1.57,13.84-10.69,12.03-20.37Z"/><ellipse cx="84.36" cy="49.39" rx="6.96" ry="9.93" transform="translate(-7.62 16.29) rotate(-10.56)"/><ellipse cx="111.99" cy="44.24" rx="6.96" ry="9.93" transform="translate(-6.21 21.27) rotate(-10.56)"/></g></g></svg>