<?xml version="1.0" encoding="UTF-8"?><svg id="_レイヤー_2" xmlns="http://www.w3.org/2000/svg" viewBox="0 0 616.21 145.31"><defs><style>.cls-1{fill:none;}</style></defs><g id="_レイヤー_1-2"><path class="cls-1" d="M347.82,63.79h-3.08c-4.65,0-7.42,1.81-7.42,7.42v3.41c0,5.52,1.66,7.49,7.42,7.49h3.08c5.76,0,7.42-3.08,7.42-7.49v-3.41c0-4.5-1.66-7.42-7.42-7.42Z"/><path class="cls-1" d="M422.93,60.11h-11.12v12.67h11.12c3.39,0,4.73-.95,4.73-3.79v-4.54c0-3.87-1.26-4.34-4.73-4.34Z"/><path class="cls-1" d="M568.17,60.76h-7.18c-3.55,0-4.18,1.18-4.18,5.29v9.07h15.62v-9.07c0-4.1-.63-5.29-4.26-5.29Z"/><path d="M286.68,64.94h-17.51c-1.42,0-1.81-.79-1.81-1.74v-.32c0-.87.55-1.5,1.81-1.5h23.23c5.51,0,9.98-4.47,9.98-9.98v-.47c0-5.51-4.47-9.98-9.98-9.98h-27.34c-14.12,0-22.41,5.52-22.41,19.88v2.29c0,12.39,6.31,18.93,22.25,18.93h15.7c1.03,0,1.58.39,1.58,1.5v.24c0,1.03-.39,1.5-1.58,1.5h-26.7c-5.51,0-9.98,4.47-9.98,9.98s4.47,9.98,9.98,9.98h31.52c15.38,0,21.22-9.15,21.22-19.64v-4.1c0-9.47-6.86-16.57-19.96-16.57Z"/><path d="M350.42,40.56h-8.28c-22.72,0-28.01,6.07-28.01,27.69v9.7c0,21.7,5.29,27.69,28.01,27.69h8.28c22.64,0,28.32-6,28.32-27.69v-9.7c0-21.62-7.26-27.69-28.32-27.69ZM355.24,74.62c0,4.42-1.66,7.49-7.42,7.49h-3.08c-5.76,0-7.42-1.97-7.42-7.49v-3.41c0-5.6,2.76-7.42,7.42-7.42h3.08c5.76,0,7.42,2.92,7.42,7.42v3.41Z"/><path d="M429.4,40.96h-29.31c-6.47,0-11.72,5.25-11.72,11.72v40.94c0,6.47,5.25,11.72,11.72,11.72h0c6.47,0,11.72-5.25,11.72-11.72v-1.46h17.43c15.38,0,22.01-9.15,22.01-22.64v-5.13c0-17.12-8.84-23.43-21.85-23.43ZM427.66,68.99c0,2.84-1.34,3.79-4.73,3.79h-11.12v-12.67h11.12c3.47,0,4.73.47,4.73,4.34v4.54Z"/><path d="M512.32,40.96h-.08c-6.54,0-11.83,5.3-11.83,11.83v7.81h-14.83v-7.81c0-6.54-5.3-11.83-11.83-11.83h0c-6.54,0-11.83,5.3-11.83,11.83v40.71c0,6.54,5.3,11.83,11.83,11.83h0c6.54,0,11.83-5.3,11.83-11.83v-11.75h14.83v11.75c0,6.54,5.3,11.83,11.83,11.83h.08c6.54,0,11.83-5.3,11.83-11.83v-40.71c0-6.54-5.3-11.83-11.83-11.83Z"/><path d="M568.41,39.77h-8.76c-20.83,0-25.32,6.71-25.32,26.27v29.58c0,5.36,4.34,9.7,9.7,9.7h3.08c5.36,0,9.7-4.34,9.7-9.7h0s15.62,0,15.62,0h0c0,5.36,4.34,9.7,9.7,9.7h2.92c5.36,0,9.7-4.34,9.7-9.7v-29.58c0-19.56-5.52-26.27-26.35-26.27ZM572.43,75.12h-15.62v-9.07c0-4.1.63-5.29,4.18-5.29h7.18c3.63,0,4.26,1.18,4.26,5.29v9.07Z"/><path class="cls-1" d="M0,0v145.31h616.21V0H0ZM306.64,85.61c0,10.49-5.84,19.64-21.22,19.64h-31.52c-5.51,0-9.98-4.47-9.98-9.98s4.47-9.98,9.98-9.98h26.7c1.18,0,1.58-.47,1.58-1.5v-.24c0-1.1-.55-1.5-1.58-1.5h-15.7c-15.94,0-22.25-6.55-22.25-18.93v-2.29c0-14.36,8.28-19.88,22.41-19.88h27.34c5.51,0,9.98,4.47,9.98,9.98v.47c0,5.51-4.47,9.98-9.98,9.98h-23.23c-1.26,0-1.81.63-1.81,1.5v.32c0,.95.39,1.74,1.81,1.74h17.51c13.1,0,19.96,7.1,19.96,16.57v4.1ZM378.75,77.96c0,21.7-5.68,27.69-28.32,27.69h-8.28c-22.72,0-28.01-6-28.01-27.69v-9.7c0-21.62,5.29-27.69,28.01-27.69h8.28c21.06,0,28.32,6.07,28.32,27.69v9.7ZM451.25,69.52c0,13.49-6.63,22.64-22.01,22.64h-17.43v1.46c0,6.47-5.25,11.72-11.72,11.72h0c-6.47,0-11.72-5.25-11.72-11.72v-40.94c0-6.47,5.25-11.72,11.72-11.72h29.31c13.02,0,21.85,6.31,21.85,23.43v5.13ZM524.15,93.5c0,6.54-5.3,11.83-11.83,11.83h-.08c-6.54,0-11.83-5.3-11.83-11.83v-11.75h-14.83v11.75c0,6.54-5.3,11.83-11.83,11.83h0c-6.54,0-11.83-5.3-11.83-11.83v-40.71c0-6.54,5.3-11.83,11.83-11.83h0c6.54,0,11.83,5.3,11.83,11.83v7.81h14.83v-7.81c0-6.54,5.3-11.83,11.83-11.83h.08c6.54,0,11.83,5.3,11.83,11.83v40.71ZM594.76,95.63c0,5.36-4.34,9.7-9.7,9.7h-2.92c-5.36,0-9.7-4.34-9.7-9.7h0s-15.62,0-15.62,0h0c0,5.36-4.34,9.7-9.7,9.7h-3.08c-5.36,0-9.7-4.34-9.7-9.7v-29.58c0-19.56,4.5-26.27,25.32-26.27h8.76c20.83,0,26.35,6.71,26.35,26.27v29.58Z"/><path d="M127.04,54.59c-2.03,0-3.91-1.14-5.03-3.03-1.12,1.89-3,3.03-5.03,3.03-3.35,0-6.08-3.1-6.08-6.91s2.73-6.91,6.08-6.91c2.03,0,3.91,1.14,5.03,3.03,1.12-1.89,3-3.03,5.03-3.03,3.35,0,6.08,3.1,6.08,6.91s-2.73,6.91-6.08,6.91ZM122,49.88l.34.72c.94,2,2.73,3.24,4.7,3.24,2.94,0,5.34-2.76,5.34-6.16s-2.39-6.16-5.34-6.16c-1.96,0-3.76,1.24-4.7,3.24l-.34.72-.34-.72c-.94-2-2.73-3.24-4.7-3.24-2.94,0-5.34,2.76-5.34,6.16s2.39,6.16,5.34,6.16c1.96,0,3.76-1.24,4.7-3.24l.34-.72Z"/><ellipse cx="125.51" cy="47.38" rx="2.55" ry="3.64"/><ellipse cx="115.51" cy="47.38" rx="2.55" ry="3.64"/><path d="M164.38,55.97l-.08-.27h-21.48l-.08.27c-.2.69-.3,1.41-.3,2.13,0,3.81,2.73,6.91,6.08,6.91,2.03,0,3.91-1.14,5.03-3.03,1.12,1.89,3,3.03,5.03,3.03,3.35,0,6.08-3.1,6.08-6.91,0-.72-.1-1.44-.3-2.13ZM158.6,64.27c-1.96,0-3.76-1.24-4.7-3.24l-.34-.72-.34.72c-.94,2-2.73,3.24-4.7,3.24-2.94,0-5.33-2.76-5.33-6.16,0-.56.07-1.11.2-1.66h1.67c-.12.42-.18.88-.18,1.36,0,2.01,1.14,3.64,2.55,3.64s2.55-1.63,2.55-3.64c0-.48-.07-.94-.18-1.36h5.27c-.12.42-.18.88-.18,1.36,0,2.01,1.14,3.64,2.55,3.64s2.55-1.63,2.55-3.64c0-.48-.07-.94-.18-1.36h3.93c.13.54.2,1.1.2,1.66,0,3.4-2.39,6.16-5.34,6.16Z"/><path d="M89.94,55.55c-.65,0-1.17-.53-1.17-1.17,0-.85-1.08-1.58-2.36-1.58s-2.36.72-2.36,1.58c0,.65-.53,1.17-1.17,1.17s-1.17-.53-1.17-1.17c0-2.16,2.11-3.92,4.71-3.92s4.71,1.76,4.71,3.92c0,.65-.53,1.17-1.17,1.17Z"/><path d="M104.06,55.55c-.65,0-1.17-.53-1.17-1.17,0-.85-1.08-1.58-2.36-1.58s-2.36.72-2.36,1.58c0,.65-.53,1.17-1.17,1.17s-1.17-.53-1.17-1.17c0-2.16,2.11-3.92,4.71-3.92s4.71,1.76,4.71,3.92c0,.65-.53,1.17-1.17,1.17Z"/><path d="M54.01,51.72c-2.72,0-5.21-2.22-5.79-5.33-.64-3.46,1.31-6.74,4.36-7.31,1.83-.34,3.72.37,5.06,1.87.71-1.88,2.21-3.22,4.05-3.56,3.06-.57,6.06,1.79,6.7,5.25h0c.64,3.46-1.31,6.74-4.36,7.31-1.83.34-3.72-.37-5.06-1.87-.71,1.88-2.21,3.22-4.05,3.56-.31.06-.61.08-.91.08ZM53.5,39.74c-.26,0-.52.02-.78.07-2.65.49-4.33,3.38-3.76,6.44s3.19,5.15,5.83,4.65c1.76-.33,3.17-1.75,3.68-3.7l.2-.77.46.65c1.18,1.64,3,2.46,4.76,2.13,2.65-.49,4.33-3.38,3.76-6.44h0c-.57-3.06-3.19-5.15-5.83-4.65-1.76.33-3.17,1.75-3.68,3.7l-.2.77-.46-.65c-1-1.4-2.48-2.2-3.99-2.2Z"/><ellipse cx="55.89" cy="45.24" rx="2.35" ry="3.35" transform="translate(-7.34 11.01) rotate(-10.56)"/><ellipse cx="65.22" cy="43.5" rx="2.35" ry="3.35" transform="translate(-6.87 12.68) rotate(-10.56)"/><path d="M216.57,48.99h-.35c-2.54,0-4.85.92-6.64,2.45-.09.07-.17.15-.25.22-.05.04-.09.09-.14.13-.08.08-.16.16-.24.23-.04.05-.09.09-.13.14-.08.08-.16.17-.24.26-.04.04-.08.08-.12.13-.11.13-.22.26-.32.39-.04.05-.08.11-.12.16-.06.08-.13.17-.19.25-.05.07-.1.14-.15.22-.05.07-.09.14-.14.21-.05.08-.1.16-.15.24-.04.06-.08.13-.11.2-.05.09-.1.17-.14.26-.03.06-.06.12-.09.18-.05.09-.09.19-.14.29-.03.05-.05.11-.07.16-.05.11-.09.21-.14.32-.01.04-.03.07-.04.11-.16.42-.3.85-.41,1.29,0,0,0,.02,0,.03-.03.13-.06.27-.09.4,0,.04-.02.08-.02.11-.02.13-.04.26-.06.39,0,.05-.01.09-.02.14-.02.13-.03.26-.04.39,0,.05,0,.09-.01.14-.01.13-.02.26-.03.4,0,.15-.01.29-.01.44v19.7h-17.13v4.93c0,1.26-1.03,2.28-2.28,2.28s-2.28-1.03-2.28-2.28v-4.93h-4.09v4.93c0,1.26-1.03,2.28-2.28,2.28s-2.28-1.03-2.28-2.28v-4.93h-.32c-4.34-3.1-7.4-8.04-6.94-13.7.56-6.86,6.61-13.6,15.74-13.4.63.01,1.16-.45,1.21-1.08.05-.67-.46-1.26-1.14-1.28-3.73-.09-7.3.84-10.38,2.8-.46.31-1.07.18-1.28-.37-.51-1.27-.74-2.78-.61-4.34.44-5.4,6.26-9.13,13.58-8.53l10.62.87c4.2.34,7.5,2.03,9.87,4.61v-4.33c0-11.14-9.03-20.16-20.16-20.16l-123.86.03c-11.14,0-20.16,9.03-20.16,20.16v3.71c2.52-3.5,6.17-5.91,10.36-6.82l6.35-1.39c3.96-.86,7.97-.16,11.3,1.98,3.39,2.18,5.76,5.67,6.67,9.83.94,4.31-2.38,8.86-7.25,9.92-4.15.91-8.51-1.31-10.37-5.27-.38-.76-1.02-.72-1.47-.62l-3.14.69c-.31.07-.57.26-.72.53-.17.3-.2.66-.08,1.02.2.54.74.81,1.35.67l1.28-.28c.6-.13,1.06.04,1.49.53,3.3,4.09,7.84,5.97,12.16,5.02,2.25-.49,4.23-1.57,5.72-3.11.19-.2.49-.31.79-.3.29.01.55.14.71.34,1.44,1.79,2.31,3.63,2.82,5.99,1.34,6.13-.75,12.22-4.97,16.27v5.09c0,1.18-.97,2.15-2.15,2.15h0c-1.18,0-2.15-.97-2.15-2.15v-5.08h-3.85v5.08c0,1.18-.97,2.15-2.15,2.15s-2.15-.97-2.15-2.15v-5.08h-17.65c-1.26-1.72-2.13-3.7-2.54-5.84-.69-3.76,1.91-8.43,6.88-9.51.08-.02.16-.03.24-.05,4.6-.88,9.17,2.23,10.19,6.92l.57,2.63c.08.36.31.67.64.83.32.16.69.16,1.02,0,.53-.26.78-.77.65-1.34l-.57-2.63c-1.29-5.89-7-9.83-12.73-8.78-2.25.43-4.28,1.44-5.89,2.94-.23.22-.53.33-.83.3-.21-.02-.39-.1-.55-.24v-5.18c0-.12,0-.24,0-.35,0-.16-.02-.32-.03-.48,0-.01,0-.02,0-.03-.01-.16-.03-.31-.05-.47,0-.01,0-.03,0-.04-.02-.15-.04-.3-.07-.45,0-.02,0-.04-.01-.06-.03-.14-.06-.29-.09-.43,0-.02-.01-.05-.02-.07-.03-.14-.07-.27-.11-.41,0-.03-.02-.06-.02-.08-.04-.13-.08-.26-.12-.39-.01-.03-.02-.07-.03-.1-.04-.12-.09-.24-.13-.36-.02-.04-.03-.08-.05-.12-.05-.11-.09-.22-.14-.33-.02-.05-.04-.1-.07-.14-.05-.1-.09-.2-.14-.3-.03-.06-.06-.12-.09-.17-.05-.09-.09-.17-.14-.25-.04-.07-.09-.15-.13-.22-.04-.07-.08-.13-.12-.2-.06-.1-.13-.2-.2-.3-.02-.04-.05-.07-.07-.11-.38-.55-.82-1.06-1.3-1.52,0,0,0,0,0,0-1.84-1.77-4.34-2.85-7.09-2.85h-.04c-5.66,0-10.24,4.59-10.24,10.24v53.3c0,5.66,4.59,10.24,10.24,10.24h.04c5.66,0,10.24-4.59,10.24-10.24v-3.92h164.17v3.9c0,5.67,4.59,10.26,10.26,10.26h.35c5.67,0,10.26-4.59,10.26-10.26v-53.03c0-5.67-4.59-10.26-10.26-10.26ZM106.86,49.96v24.9c-1.96,1.67-4.39,2.96-7.14,3.75v5.47c0,1.15-.94,2.09-2.08,2.09s-2.09-.94-2.09-2.09v-4.71c-.67.06-1.36.09-2.06.09-.57,0-1.13-.02-1.68-.06v4.68c0,1.15-.94,2.09-2.09,2.09s-2.08-.94-2.08-2.09v-5.36c-3.35-.88-6.25-2.51-8.42-4.64,1.66-3.54,2.15-7.57,1.28-11.54-.54-2.47-1.46-4.42-2.97-6.29-.3-.37-.75-.59-1.26-.61-.49-.02-.95.15-1.29.46v-.12c0-.36.02-.72.05-1.07,1.6-1.81,2.48-4.11,2.31-6.43,3.14-4.59,9.13-7.64,16.14-7.64,5.66,0,10.64,1.99,13.99,5.18-.41,1.25-.63,2.58-.63,3.96ZM136.81,72.25c-2.14.99-4.55,1.51-7.16,1.51-2.04,0-3.96-.83-5.4-2.33-1.52-1.59-2.34-3.79-2.25-6.03.19-4.26,3.78-7.6,8.18-7.6h2.22c.34,0,.66-.15.88-.41.22-.27.31-.63.23-1-.08-.56-.55-.94-1.17-.94h-2.16c-5.71,0-10.53,4.7-10.53,10.27,0,4.73,3.15,8.84,7.66,10,.46.1.78.51.78.99,0,.78-.09,1.53-.27,2.26h-4.61v4.97c0,1.24-1.01,2.25-2.25,2.25s-2.25-1.01-2.25-2.25v-4.97h-4.04v4.97c0,1.24-1.01,2.25-2.25,2.25s-2.25-1.01-2.25-2.25v-4.97h-2.26c-.19-.77-.29-1.59-.29-2.45v-26.55c0-6.64,5.37-12.03,11.97-12.03h8.37c5.46,0,10.08,1.91,13.29,5.18-.42.3-.82.64-1.2,1.01-2.08,2.03-3.23,4.76-3.23,7.69v20.45ZM162.53,78.38c-.21.31-.43.5-.7.58h-7.48v4.97c0,1.24-1.01,2.25-2.25,2.25s-2.25-1.01-2.25-2.25v-4.97h-4.04v4.97c0,1.24-1.01,2.25-2.25,2.25s-2.25-1.01-2.25-2.25v-4.97h-3.74v-27.16c0-2.73,1.07-5.27,3.01-7.16,1.88-1.83,4.36-2.83,7-2.83.09,0,.18,0,.27,0,5.34.15,9.69,4.73,9.69,10.21h5.49c0-5.63,4.34-10.21,9.68-10.21.41,0,.81.02,1.2.06-1.6,1.56-2.54,3.5-2.72,5.64-.14,1.65.09,3.27.66,4.68.18.45.54.79.99.93.47.14.98.06,1.38-.21,2.52-1.6,5.47-2.51,8.58-2.66.04.29.07.58.09.87-3.94.19-7.58,1.67-10.35,4.23-2.81,2.6-4.6,6.18-4.89,9.83-.23,2.82.39,5.61,1.73,8.15-2.66.85-5.08,2.6-6.83,5.03ZM165.59,78.96c1.4-1.54,3.27-2.67,5.36-3.14.88,1.14,1.93,2.19,3.12,3.14h-8.49Z"/><path d="M200.89,50.81c-.39,0-.78-.04-1.16-.12-1.21-.25-2.28-.86-3.02-1.72-.8-.93-1.13-2.1-.91-3.19.13-.65.77-1.07,1.42-.94.65.13,1.07.77.94,1.42-.1.49.19.93.38,1.14.39.45,1,.79,1.67.93.68.14,1.37.07,1.9-.2.25-.13.69-.41.79-.9.13-.65.77-1.07,1.42-.94.65.13,1.07.77.94,1.42-.22,1.09-.98,2.03-2.08,2.58-.69.34-1.48.52-2.29.52Z"/><path d="M188.1,47.96c-.38,0-.76-.04-1.15-.12-2.61-.53-4.37-2.73-3.93-4.91.13-.65.77-1.07,1.42-.94.65.13,1.07.77.94,1.42-.18.86.76,1.81,2.05,2.07,1.29.26,2.52-.24,2.7-1.1.13-.65.77-1.07,1.42-.94.65.13,1.07.77.94,1.42-.38,1.85-2.24,3.1-4.39,3.1Z"/></g></svg>