<?xml version="1.0" encoding="UTF-8"?><svg id="_レイヤー_2" xmlns="http://www.w3.org/2000/svg" viewBox="0 0 667.11 390.41"><defs><style>.cls-1{fill:none;}.cls-2{fill:#5462e0;}.cls-3{fill:#29ca7a;}.cls-4{fill:#ff9200;}.cls-5{fill:#42bcff;}.cls-6{fill:#ea2173;}.cls-7{fill:#fb78b7;}.cls-8{fill:#fff;}.cls-9{fill:#5d89e2;}</style></defs><g id="_レイヤー_1-2"><rect class="cls-1" width="667.11" height="390.41"/><path class="cls-2" d="M582.74,135.74h-.93c-14.84,0-26.94,11.75-27.51,26.45v-50.07c0-29.89-24.23-54.11-54.11-54.11l-332.38.08c-29.89,0-54.11,24.23-54.11,54.11v49.47c-.49-14.75-12.6-26.56-27.47-26.56h-.1c-15.18,0-27.49,12.31-27.49,27.49v143.04c0,15.18,12.31,27.49,27.49,27.49h.1c15.18,0,27.49-12.31,27.49-27.49v-10.51h440.55v10.46c0,15.21,12.33,27.54,27.54,27.54h.93c15.21,0,27.54-12.33,27.54-27.54v-142.32c0-15.21-12.33-27.54-27.54-27.54ZM113.72,254.21v-37.92l440.55-.08v38H113.72Z"/><polygon class="cls-9" points="554.35 254.21 113.72 254.21 113.72 216.28 554.28 216.14 554.35 254.21"/><path class="cls-7" d="M252.45,114.52c-27.85,0-49.66,17.85-49.66,40.63v22.57c0,18.21,14.04,33.25,33.96,38.49v14.38c0,3.08,2.52,5.6,5.6,5.6s5.6-2.52,5.6-5.6v-12.55c1.48.1,2.98.17,4.51.17,1.87,0,3.71-.09,5.52-.25v12.63c0,3.08,2.52,5.6,5.6,5.6s5.6-2.52,5.6-5.6v-14.67c19.29-5.49,32.78-20.32,32.78-38.2v-22.57c0-22.79-21.74-40.63-49.49-40.63Z"/><path class="cls-8" d="M242.91,154.08c-1.74,0-3.15-1.41-3.15-3.15,0-2.29-2.9-4.23-6.34-4.23s-6.34,1.94-6.34,4.23c0,1.74-1.41,3.15-3.15,3.15s-3.15-1.41-3.15-3.15c0-5.81,5.67-10.53,12.64-10.53s12.64,4.72,12.64,10.53c0,1.74-1.41,3.15-3.15,3.15Z"/><path class="cls-8" d="M280.81,154.08c-1.74,0-3.15-1.41-3.15-3.15,0-2.29-2.9-4.23-6.34-4.23s-6.34,1.94-6.34,4.23c0,1.74-1.41,3.15-3.15,3.15s-3.15-1.41-3.15-3.15c0-5.81,5.67-10.53,12.64-10.53s12.64,4.72,12.64,10.53c0,1.74-1.41,3.15-3.15,3.15Z"/><path class="cls-4" d="M344.9,106.08h-22.46c-17.71,0-32.12,14.49-32.12,32.29v71.25c0,2.3.27,4.51.77,6.58h6.05v13.34c0,3.33,2.72,6.05,6.05,6.05s6.05-2.72,6.05-6.05v-13.34h10.84v13.34c0,3.33,2.72,6.05,6.05,6.05s6.05-2.72,6.05-6.05v-13.34h12.36c.47-1.94.71-3.97.71-6.05,0-1.29-.86-2.38-2.08-2.65-12.11-3.12-20.56-14.15-20.56-26.83,0-14.93,12.94-27.55,28.25-27.55h5.79c1.67,0,2.93,1.02,3.15,2.53.2.98-.02,1.95-.62,2.68-.58.7-1.43,1.1-2.35,1.1h-5.97c-11.79,0-21.43,8.96-21.94,20.39-.25,6.02,1.95,11.92,6.03,16.18,3.86,4.03,9.01,6.25,14.5,6.25,12.92,0,23.99-4.65,32.02-13.46,7.99-8.77,12.21-20.8,12.21-34.8,0-28.21-20.06-47.91-48.79-47.91Z"/><path class="cls-8" d="M342.46,114.72c-5.85,0-10.92,3.75-13.51,9.27-2.58-5.51-7.66-9.27-13.51-9.27-8.46,0-15.32,7.85-15.32,17.54s6.86,17.54,15.32,17.54c5.85,0,10.92-3.75,13.51-9.27,2.58,5.51,7.66,9.27,13.51,9.27,8.46,0,15.32-7.85,15.32-17.54s-6.86-17.54-15.32-17.54Z"/><ellipse cx="338.37" cy="131.45" rx="6.85" ry="9.78"/><ellipse cx="311.52" cy="131.45" rx="6.85" ry="9.78"/><path class="cls-6" d="M464.96,116.51c-14.32,0-25.97,12.29-25.97,27.4h-14.72c0-14.71-11.66-27.01-25.99-27.4-.25,0-.49,0-.73,0-7.1,0-13.74,2.68-18.78,7.59-5.2,5.07-8.07,11.89-8.07,19.21v72.88h10.03v13.34c0,3.33,2.72,6.05,6.05,6.05s6.05-2.72,6.05-6.05v-13.34h10.84v13.34c0,3.33,2.72,6.05,6.05,6.05s6.05-2.72,6.05-6.05v-13.34h20.08c.72-.21,1.31-.71,1.88-1.55,6.82-9.46,17.38-15.09,28.29-15.09,2.07,0,3.62,1.36,3.88,3.37.22.98,0,2-.65,2.81-.7.88-1.8,1.38-3.02,1.38-7.95,0-15.24,3.55-20.26,9.08h46.44v-72.88c0-15.27-11.78-26.79-27.4-26.79Z"/><path class="cls-8" d="M441.71,154.76h-11.65c.52,1.38.82,2.96.82,4.64,0,5.4-3.07,9.78-6.85,9.78s-6.85-4.38-6.85-9.78c0-1.68.3-3.26.82-4.64h-14.8c.52,1.38.82,2.96.82,4.64,0,5.4-3.07,9.78-6.85,9.78s-6.85-4.38-6.85-9.78c0-1.68.3-3.26.82-4.64h-5.57c-.49,1.72-.76,3.54-.76,5.45,0,9.69,6.86,17.54,15.32,17.54,5.85,0,10.92-3.75,13.51-9.27,2.58,5.51,7.66,9.27,13.51,9.27,8.46,0,15.32-7.85,15.32-17.54,0-1.9-.27-3.73-.76-5.45Z"/><path d="M424.03,169.18c3.78,0,6.85-4.38,6.85-9.78,0-1.68-.3-3.26-.82-4.64h-12.05c-.52,1.38-.82,2.96-.82,4.64,0,5.4,3.07,9.78,6.85,9.78Z"/><path d="M397.19,169.18c3.78,0,6.85-4.38,6.85-9.78,0-1.68-.3-3.26-.82-4.64h-12.05c-.52,1.38-.82,2.96-.82,4.64,0,5.4,3.07,9.78,6.85,9.78Z"/><path class="cls-3" d="M113.71,162.71v13.9c.41.37.92.59,1.47.64.8.07,1.62-.22,2.23-.81,4.32-4.02,9.79-6.74,15.81-7.88,15.39-2.81,30.72,7.76,34.17,23.57l1.54,7.06c.34,1.55-.31,2.9-1.74,3.6-.89.41-1.88.4-2.73-.02-.88-.44-1.51-1.25-1.72-2.23l-1.54-7.06c-2.75-12.59-15.01-20.92-27.35-18.57-.21.04-.43.08-.63.13-13.35,2.91-20.32,15.44-18.46,25.53,1.12,5.75,3.46,11.07,6.83,15.69h47.37v13.64c0,3.17,2.59,5.76,5.76,5.76s5.76-2.59,5.76-5.76v-13.64h10.32v13.64c0,3.17,2.59,5.76,5.76,5.76h0c3.17,0,5.76-2.59,5.76-5.76v-13.65c11.32-10.89,16.91-27.23,13.33-43.67-1.38-6.32-3.72-11.27-7.58-16.06-.43-.54-1.13-.87-1.9-.9-.82-.04-1.62.26-2.13.8-4,4.14-9.31,7.02-15.36,8.34-11.59,2.53-23.79-2.51-32.63-13.48-1.16-1.34-2.4-1.78-4-1.44l-3.44.75c-1.64.36-3.1-.37-3.63-1.81-.33-.97-.26-1.94.2-2.75.42-.74,1.11-1.25,1.95-1.43l8.44-1.84c1.21-.26,2.94-.38,3.95,1.67,4.98,10.63,16.68,16.56,27.82,14.13,13.07-2.85,21.98-15.04,19.45-26.62-2.44-11.17-8.8-20.54-17.91-26.39-8.94-5.74-19.71-7.62-30.33-5.3l-17.05,3.72c-12.08,2.64-22.47,9.89-29.24,20.42-3.68,5.71-6.02,12-6.99,18.48,5.21,5,8.46,12.03,8.46,19.83Z"/><path class="cls-8" d="M184.1,118.84c-1.63-8.77-9.16-14.71-16.82-13.29-5.29.99-9.25,5.24-10.66,10.66-3.27-4.55-8.49-7.09-13.78-6.11-7.65,1.43-12.53,9.69-10.9,18.45,1.63,8.77,9.16,14.71,16.82,13.29,5.29-.99,9.25-5.24,10.66-10.66,3.27,4.55,8.49,7.09,13.78,6.11,7.65-1.43,12.53-9.69,10.9-18.45Z"/><ellipse cx="151.55" cy="125.65" rx="6.3" ry="9" transform="translate(-20.46 29.89) rotate(-10.56)"/><ellipse cx="176.58" cy="120.99" rx="6.3" ry="9" transform="translate(-19.18 34.4) rotate(-10.56)"/><path class="cls-5" d="M471.99,216.14h.86v13.24c0,3.37,2.76,6.12,6.12,6.12s6.12-2.76,6.12-6.12v-13.24h10.98v13.24c0,3.37,2.76,6.12,6.12,6.12s6.12-2.76,6.12-6.12v-13.24h45.96v-52.86c0-8.5,3.85-16.1,9.91-21.15-4.65-16.83-16.9-29.15-36.36-30.74l-28.5-2.33c-19.62-1.6-35.25,8.41-36.43,22.89-.34,4.2.27,8.25,1.64,11.66.59,1.46,2.2,1.83,3.45.99,8.27-5.26,17.84-7.74,27.85-7.51,1.81.04,3.2,1.62,3.05,3.42-.14,1.68-1.57,2.94-3.26,2.9-24.49-.52-40.74,17.56-42.24,35.97-1.24,15.19,6.97,28.44,18.61,36.75Z"/><path class="cls-8" d="M540.66,140.62c-1.03,0-2.08-.1-3.12-.32-3.25-.66-6.13-2.3-8.11-4.61-2.15-2.5-3.04-5.63-2.44-8.56.36-1.75,2.06-2.87,3.81-2.52,1.75.36,2.88,2.06,2.52,3.81-.27,1.33.52,2.49,1.01,3.06,1.04,1.21,2.67,2.11,4.49,2.48,1.82.37,3.68.18,5.11-.53.68-.34,1.86-1.1,2.13-2.42.36-1.75,2.06-2.87,3.81-2.52,1.75.36,2.88,2.06,2.52,3.81-.6,2.94-2.64,5.46-5.59,6.93-1.85.92-3.96,1.39-6.14,1.39Z"/><path class="cls-8" d="M506.32,132.96c-1.01,0-2.04-.1-3.08-.31-7-1.43-11.73-7.34-10.55-13.17.36-1.75,2.07-2.87,3.81-2.52,1.75.36,2.88,2.06,2.52,3.81-.47,2.3,2.05,4.84,5.5,5.55,3.46.7,6.77-.65,7.23-2.95.36-1.75,2.07-2.87,3.81-2.52,1.75.36,2.88,2.06,2.52,3.81-1.01,4.97-6,8.31-11.78,8.31Z"/></g></svg>