<?xml version="1.0" encoding="UTF-8"?><svg id="_レイヤー_2" xmlns="http://www.w3.org/2000/svg" viewBox="0 0 949.08 223.81"><defs><style>.cls-1{fill:none;}.cls-2{fill:#5462e0;}.cls-3{fill:#29ca7a;}.cls-4{fill:#ff9200;}.cls-5{fill:#42bcff;}.cls-6{fill:#ea2173;}.cls-7{fill:#fb78b7;}.cls-8{fill:#fff;}.cls-9{fill:#5d89e2;}</style></defs><g id="_レイヤー_1-2"><path class="cls-2" d="M439.59,162.11h-48.54c-8.49,0-15.37-6.88-15.37-15.37h0c0-8.49,6.88-15.37,15.37-15.37h41.13c1.82,0,2.43-.73,2.43-2.31v-.36c0-1.7-.85-2.31-2.43-2.31h-24.18c-24.54,0-34.26-10.09-34.26-29.16v-3.52c0-22.11,12.76-30.62,34.51-30.62h42.1c8.49,0,15.37,6.88,15.37,15.37v.73c0,8.49-6.88,15.37-15.37,15.37h-35.78c-1.94,0-2.79.97-2.79,2.31v.49c0,1.46.61,2.67,2.79,2.67h26.97c20.17,0,30.74,10.94,30.74,25.52v6.32c0,16.16-8.99,30.26-32.69,30.26Z"/><path class="cls-2" d="M539.72,162.72h-12.76c-34.99,0-43.14-9.23-43.14-42.65v-14.95c0-33.29,8.14-42.65,43.14-42.65h12.76c32.44,0,43.62,9.36,43.62,42.65v14.95c0,33.41-8.75,42.65-43.62,42.65ZM547.13,109.66c0-6.93-2.55-11.42-11.42-11.42h-4.74c-7.17,0-11.42,2.79-11.42,11.42v5.26c0,8.5,2.55,11.54,11.42,11.54h4.74c8.87,0,11.42-4.74,11.42-11.54v-5.26Z"/><path class="cls-2" d="M661.11,141.94h-26.85v2.25c0,9.97-8.08,18.04-18.04,18.04h0c-9.97,0-18.04-8.08-18.04-18.04v-63.06c0-9.97,8.08-18.04,18.04-18.04h45.14c20.05,0,33.66,9.72,33.66,36.09v7.9c0,20.78-10.21,34.87-33.9,34.87ZM658.68,99.26c0-5.95-1.94-6.68-7.29-6.68h-17.13v19.51h17.13c5.22,0,7.29-1.46,7.29-5.83v-6.99Z"/><path class="cls-2" d="M770.71,144.01v-18.1h-22.84v18.1c0,10.07-8.16,18.23-18.23,18.23h0c-10.07,0-18.23-8.16-18.23-18.23v-62.7c0-10.07,8.16-18.23,18.23-18.23h0c10.07,0,18.23,8.16,18.23,18.23v12.03h22.84v-12.03c0-10.07,8.16-18.23,18.23-18.23h.12c10.07,0,18.23,8.16,18.23,18.23v62.7c0,10.07-8.16,18.23-18.23,18.23h-.12c-10.07,0-18.23-8.16-18.23-18.23Z"/><path class="cls-2" d="M881.65,147.29h0s-24.06,0-24.06,0h0c0,8.25-6.69,14.95-14.95,14.95h-4.74c-8.25,0-14.95-6.69-14.95-14.95v-45.57c0-30.13,6.93-40.46,39-40.46h13.49c32.08,0,40.58,10.33,40.58,40.46v45.57c0,8.25-6.69,14.95-14.95,14.95h-4.5c-8.25,0-14.95-6.69-14.95-14.95ZM881.65,101.72c0-6.32-.97-8.14-6.56-8.14h-11.06c-5.47,0-6.44,1.82-6.44,8.14v13.97h24.06v-13.97Z"/><path class="cls-2" d="M333.45,77.51h-.53c-8.5,0-15.43,6.73-15.76,15.15v-28.68c0-17.12-13.88-31-31-31l-190.4.04c-17.12,0-31,13.88-31,31v28.34c-.28-8.45-7.22-15.21-15.73-15.21h-.06c-8.7,0-15.75,7.05-15.75,15.75v81.94c0,8.7,7.05,15.75,15.75,15.75h.06c8.7,0,15.75-7.05,15.75-15.75v-6.02h252.37v5.99c0,8.71,7.06,15.77,15.77,15.77h.53c8.71,0,15.77-7.06,15.77-15.77v-81.53c0-8.71-7.06-15.77-15.77-15.77ZM64.77,145.37v-21.72l252.37-.04v21.77H64.77Z"/><polygon class="cls-9" points="317.18 145.37 64.77 145.37 64.77 123.65 317.14 123.56 317.18 145.37"/><path class="cls-7" d="M144.24,65.35c-15.95,0-28.45,10.22-28.45,23.28v12.93c0,10.43,8.04,19.05,19.45,22.05v8.24c0,1.76,1.44,3.21,3.21,3.21s3.21-1.44,3.21-3.21v-7.19c.85.06,1.71.1,2.58.1,1.07,0,2.13-.05,3.16-.14v7.23c0,1.76,1.44,3.21,3.21,3.21s3.21-1.44,3.21-3.21v-8.41c11.05-3.15,18.78-11.64,18.78-21.88v-12.93c0-13.05-12.45-23.28-28.35-23.28Z"/><path class="cls-8" d="M138.78,88.01c-1,0-1.81-.81-1.81-1.81,0-1.31-1.66-2.42-3.63-2.42s-3.63,1.11-3.63,2.42c0,1-.81,1.81-1.81,1.81s-1.81-.81-1.81-1.81c0-3.33,3.25-6.03,7.24-6.03s7.24,2.71,7.24,6.03c0,1-.81,1.81-1.81,1.81Z"/><path class="cls-8" d="M160.48,88.01c-1,0-1.81-.81-1.81-1.81,0-1.31-1.66-2.42-3.63-2.42s-3.63,1.11-3.63,2.42c0,1-.81,1.81-1.81,1.81s-1.81-.81-1.81-1.81c0-3.33,3.25-6.03,7.24-6.03s7.24,2.71,7.24,6.03c0,1-.81,1.81-1.81,1.81Z"/><path class="cls-4" d="M197.2,60.52h-12.87c-10.14,0-18.4,8.3-18.4,18.5v40.82c0,1.32.15,2.58.44,3.77h3.47v7.64c0,1.91,1.56,3.46,3.46,3.46s3.46-1.56,3.46-3.46v-7.64h6.21v7.64c0,1.91,1.56,3.46,3.46,3.46s3.46-1.56,3.46-3.46v-7.64h7.08c.27-1.11.41-2.28.41-3.47,0-.74-.49-1.36-1.19-1.52-6.94-1.79-11.77-8.11-11.77-15.37,0-8.55,7.41-15.78,16.18-15.78h3.32c.96,0,1.68.58,1.8,1.45.11.56-.01,1.11-.36,1.53-.33.4-.82.63-1.35.63h-3.42c-6.75,0-12.27,5.13-12.57,11.68-.15,3.45,1.11,6.83,3.46,9.27,2.21,2.31,5.16,3.58,8.31,3.58,7.4,0,13.74-2.67,18.34-7.71,4.58-5.02,7-11.92,7-19.94,0-16.16-11.49-27.45-27.95-27.45Z"/><path class="cls-8" d="M195.8,65.46c-3.35,0-6.26,2.15-7.74,5.31-1.48-3.16-4.39-5.31-7.74-5.31-4.85,0-8.77,4.5-8.77,10.05s3.93,10.05,8.77,10.05c3.35,0,6.26-2.15,7.74-5.31,1.48,3.16,4.39,5.31,7.74,5.31,4.85,0,8.77-4.5,8.77-10.05s-3.93-10.05-8.77-10.05Z"/><ellipse cx="193.46" cy="75.05" rx="3.92" ry="5.6"/><ellipse cx="178.08" cy="75.05" rx="3.92" ry="5.6"/><path class="cls-6" d="M265.98,66.49c-8.2,0-14.88,7.04-14.88,15.7h-8.43c0-8.43-6.68-15.47-14.89-15.7-.14,0-.28,0-.42,0-4.07,0-7.87,1.54-10.76,4.35-2.98,2.9-4.62,6.81-4.62,11v41.75h5.75v7.64c0,1.91,1.56,3.46,3.46,3.46s3.46-1.56,3.46-3.46v-7.64h6.21v7.64c0,1.91,1.56,3.46,3.46,3.46s3.46-1.56,3.46-3.46v-7.64h11.5c.41-.12.75-.4,1.07-.89,3.9-5.42,9.96-8.64,16.2-8.64,1.18,0,2.08.78,2.22,1.93.13.56,0,1.15-.37,1.61-.4.5-1.03.79-1.73.79-4.56,0-8.73,2.03-11.61,5.2h26.6v-41.75c0-8.75-6.75-15.35-15.7-15.35Z"/><path class="cls-8" d="M252.66,88.4h-6.67c.3.79.47,1.7.47,2.66,0,3.09-1.76,5.6-3.92,5.6s-3.92-2.51-3.92-5.6c0-.96.17-1.87.47-2.66h-8.48c.3.79.47,1.7.47,2.66,0,3.09-1.76,5.6-3.92,5.6s-3.92-2.51-3.92-5.6c0-.96.17-1.87.47-2.66h-3.19c-.28.98-.44,2.03-.44,3.12,0,5.55,3.93,10.05,8.77,10.05,3.35,0,6.26-2.15,7.74-5.31,1.48,3.16,4.39,5.31,7.74,5.31,4.85,0,8.77-4.5,8.77-10.05,0-1.09-.16-2.14-.44-3.12Z"/><path d="M242.53,96.67c2.17,0,3.92-2.51,3.92-5.6,0-.96-.17-1.87-.47-2.66h-6.9c-.3.79-.47,1.7-.47,2.66,0,3.09,1.76,5.6,3.92,5.6Z"/><path d="M227.15,96.67c2.17,0,3.92-2.51,3.92-5.6,0-.96-.17-1.87-.47-2.66h-6.9c-.3.79-.47,1.7-.47,2.66,0,3.09,1.76,5.6,3.92,5.6Z"/><path class="cls-3" d="M64.76,92.95v7.96c.24.21.53.34.84.37.46.04.93-.13,1.28-.46,2.47-2.3,5.61-3.86,9.06-4.52,8.82-1.61,17.6,4.45,19.57,13.5l.88,4.04c.19.89-.18,1.66-1,2.06-.51.24-1.07.23-1.56-.01-.51-.25-.87-.72-.99-1.28l-.88-4.04c-1.57-7.21-8.6-11.98-15.66-10.64-.12.02-.24.05-.36.07-7.65,1.67-11.64,8.84-10.58,14.63.64,3.3,1.98,6.34,3.91,8.99h27.13v7.81c0,1.81,1.48,3.3,3.3,3.3s3.3-1.48,3.3-3.3v-7.81h5.91v7.81c0,1.81,1.48,3.3,3.3,3.3h0c1.81,0,3.3-1.48,3.3-3.3v-7.82c6.49-6.24,9.69-15.6,7.63-25.02-.79-3.62-2.13-6.46-4.34-9.2-.25-.31-.64-.5-1.09-.52-.47-.02-.93.15-1.22.46-2.29,2.37-5.33,4.02-8.8,4.78-6.64,1.45-13.63-1.44-18.69-7.72-.66-.77-1.37-1.02-2.29-.82l-1.97.43c-.94.2-1.77-.21-2.08-1.04-.19-.56-.15-1.11.12-1.57.24-.42.64-.71,1.11-.82l4.83-1.05c.69-.15,1.68-.22,2.26.96,2.85,6.09,9.55,9.49,15.94,8.09,7.49-1.63,12.59-8.62,11.14-15.25-1.4-6.4-5.04-11.77-10.26-15.12-5.12-3.29-11.29-4.37-17.37-3.04l-9.77,2.13c-6.92,1.51-12.87,5.66-16.75,11.7-2.11,3.27-3.45,6.87-4,10.59,2.99,2.87,4.85,6.89,4.85,11.36Z"/><path class="cls-8" d="M105.09,67.82c-.94-5.02-5.25-8.43-9.63-7.61-3.03.56-5.3,3-6.1,6.11-1.87-2.61-4.86-4.06-7.89-3.5-4.38.82-7.18,5.55-6.24,10.57.94,5.02,5.25,8.43,9.63,7.61,3.03-.56,5.3-3,6.1-6.11,1.87,2.61,4.86,4.06,7.89,3.5,4.38-.82,7.18-5.55,6.24-10.57Z"/><ellipse cx="86.44" cy="71.73" rx="3.61" ry="5.16" transform="translate(-11.68 17.05) rotate(-10.56)"/><ellipse cx="100.78" cy="69.06" rx="3.61" ry="5.16" transform="translate(-10.95 19.63) rotate(-10.56)"/><path class="cls-5" d="M270,123.56h.49v7.58c0,1.93,1.58,3.51,3.51,3.51s3.51-1.58,3.51-3.51v-7.58h6.29v7.58c0,1.93,1.58,3.51,3.51,3.51s3.51-1.58,3.51-3.51v-7.58h26.33v-30.28c0-4.87,2.21-9.22,5.68-12.12-2.66-9.64-9.68-16.7-20.83-17.61l-16.33-1.33c-11.24-.92-20.19,4.82-20.87,13.11-.2,2.41.15,4.73.94,6.68.34.84,1.26,1.05,1.97.57,4.74-3.01,10.22-4.43,15.95-4.3,1.04.02,1.83.93,1.75,1.96-.08.96-.9,1.68-1.87,1.66-14.03-.3-23.34,10.06-24.2,20.6-.71,8.7,3.99,16.29,10.66,21.05Z"/><path class="cls-8" d="M309.34,80.3c-.59,0-1.19-.06-1.79-.18-1.86-.38-3.51-1.32-4.64-2.64-1.23-1.43-1.74-3.22-1.4-4.91.2-1,1.18-1.64,2.18-1.44,1,.2,1.65,1.18,1.44,2.18-.15.76.3,1.43.58,1.76.59.69,1.53,1.21,2.57,1.42,1.04.21,2.11.1,2.92-.3.39-.19,1.07-.63,1.22-1.39.2-1,1.18-1.65,2.18-1.44,1,.2,1.65,1.18,1.44,2.18-.34,1.68-1.51,3.13-3.2,3.97-1.06.53-2.27.79-3.52.79Z"/><path class="cls-8" d="M289.67,75.92c-.58,0-1.17-.06-1.76-.18-4.01-.82-6.72-4.2-6.04-7.55.2-1,1.18-1.65,2.18-1.44,1,.2,1.65,1.18,1.44,2.18-.27,1.32,1.17,2.78,3.15,3.18,1.98.4,3.88-.37,4.14-1.69.2-1,1.18-1.65,2.18-1.44,1,.2,1.65,1.18,1.44,2.18-.58,2.85-3.44,4.76-6.75,4.76Z"/><rect class="cls-1" width="949.08" height="223.81"/></g></svg>