<?xml version="1.0" encoding="UTF-8"?><svg id="_レイヤー_2" xmlns="http://www.w3.org/2000/svg" viewBox="0 0 667.11 508.73"><defs><style>.cls-1{fill:none;}</style></defs><g id="_レイヤー_1-2"><path d="M341.46,150.38c-5.46,0-10.49-3.07-13.5-8.13-3.02,5.06-8.05,8.13-13.5,8.13-9,0-16.32-8.32-16.32-18.54s7.32-18.54,16.32-18.54c5.46,0,10.49,3.07,13.5,8.13,3.02-5.06,8.05-8.13,13.5-8.13,9,0,16.32,8.32,16.32,18.54s-7.32,18.54-16.32,18.54ZM327.96,137.75l.91,1.94c2.51,5.36,7.34,8.69,12.6,8.69,7.89,0,14.32-7.42,14.32-16.54s-6.42-16.54-14.32-16.54c-5.26,0-10.09,3.33-12.6,8.69l-.91,1.94-.91-1.94c-2.51-5.36-7.34-8.69-12.6-8.69-7.89,0-14.32,7.42-14.32,16.54s6.42,16.54,14.32,16.54c5.26,0,10.09-3.33,12.6-8.69l.91-1.94Z"/><ellipse cx="337.37" cy="131.04" rx="6.85" ry="9.78"/><ellipse cx="310.52" cy="131.04" rx="6.85" ry="9.78"/><path d="M441.67,154.1l-.21-.73h-57.63l-.21.73c-.53,1.86-.8,3.79-.8,5.72,0,10.22,7.32,18.54,16.32,18.54,5.46,0,10.49-3.07,13.51-8.13,3.02,5.06,8.05,8.13,13.5,8.13,9,0,16.32-8.32,16.32-18.54,0-1.93-.27-3.86-.8-5.72ZM426.15,176.36c-5.26,0-10.09-3.33-12.6-8.69l-.91-1.93-.91,1.93c-2.51,5.36-7.34,8.69-12.6,8.69-7.89,0-14.32-7.42-14.32-16.54,0-1.5.18-2.99.53-4.45h4.48c-.32,1.13-.5,2.36-.5,3.65,0,5.4,3.07,9.78,6.85,9.78s6.85-4.38,6.85-9.78c0-1.29-.18-2.52-.5-3.65h14.15c-.32,1.13-.5,2.36-.5,3.65,0,5.4,3.07,9.78,6.85,9.78s6.85-4.38,6.85-9.78c0-1.29-.18-2.52-.5-3.65h10.55c.35,1.46.53,2.95.53,4.45,0,9.12-6.42,16.54-14.32,16.54Z"/><path d="M241.91,152.97c-1.74,0-3.15-1.41-3.15-3.15,0-2.29-2.9-4.23-6.34-4.23s-6.34,1.94-6.34,4.23c0,1.74-1.41,3.15-3.15,3.15s-3.15-1.41-3.15-3.15c0-5.81,5.67-10.53,12.64-10.53s12.64,4.72,12.64,10.53c0,1.74-1.41,3.15-3.15,3.15Z"/><path d="M279.81,152.97c-1.74,0-3.15-1.41-3.15-3.15,0-2.29-2.9-4.23-6.34-4.23s-6.34,1.94-6.34,4.23c0,1.74-1.41,3.15-3.15,3.15s-3.15-1.41-3.15-3.15c0-5.81,5.67-10.53,12.64-10.53s12.64,4.72,12.64,10.53c0,1.74-1.41,3.15-3.15,3.15Z"/><path d="M145.49,142.69c-7.29,0-13.97-5.95-15.53-14.31-1.73-9.29,3.52-18.09,11.7-19.62,4.92-.92,9.98.98,13.58,5.01,1.91-5.05,5.94-8.65,10.86-9.56,8.2-1.53,16.25,4.8,17.98,14.09h0c1.73,9.29-3.52,18.09-11.7,19.62-4.92.92-9.98-.98-13.58-5.01-1.91,5.05-5.94,8.65-10.86,9.56-.82.15-1.64.23-2.45.23ZM144.12,110.53c-.7,0-1.39.06-2.09.19-7.1,1.32-11.63,9.08-10.1,17.29s8.56,13.81,15.65,12.49c4.73-.88,8.51-4.69,9.87-9.93l.54-2.07,1.25,1.74c3.16,4.4,8.06,6.59,12.79,5.71,7.1-1.32,11.63-9.08,10.1-17.29h0c-1.53-8.21-8.56-13.81-15.65-12.49-4.73.88-8.51,4.69-9.87,9.93l-.54,2.07-1.25-1.74c-2.69-3.76-6.66-5.9-10.7-5.9Z"/><ellipse cx="150.55" cy="125.29" rx="6.3" ry="9" transform="translate(-20.41 29.7) rotate(-10.56)"/><ellipse cx="175.57" cy="120.62" rx="6.3" ry="9" transform="translate(-19.13 34.21) rotate(-10.56)"/><path d="M581.74,135.37h-.93c-6.8,0-13.03,2.47-17.83,6.56-.23.2-.46.4-.68.6-.13.12-.25.23-.38.35-.22.21-.43.42-.64.63-.12.12-.24.24-.36.36-.22.23-.43.46-.64.69-.1.12-.21.23-.31.34-.29.34-.58.69-.86,1.05-.11.14-.21.29-.32.43-.17.22-.34.45-.5.68-.13.19-.26.39-.39.58-.12.19-.25.37-.37.56-.14.21-.27.43-.4.65-.1.17-.21.35-.31.53-.13.23-.26.47-.38.71-.09.16-.17.33-.25.49-.13.25-.25.51-.37.77-.07.15-.13.29-.2.44-.12.28-.25.56-.36.85-.04.1-.07.2-.11.29-.44,1.12-.8,2.28-1.09,3.47,0,.02-.01.05-.02.07-.08.36-.16.72-.23,1.08-.02.1-.04.2-.06.3-.06.34-.12.69-.17,1.04-.02.12-.04.24-.05.36-.05.34-.08.69-.12,1.04-.01.12-.02.25-.03.37-.03.35-.05.71-.07,1.07-.02.39-.03.78-.03,1.18v52.86h-45.96v13.24c0,3.37-2.76,6.12-6.12,6.12s-6.12-2.76-6.12-6.12v-13.24h-10.98v13.24c0,3.37-2.76,6.12-6.12,6.12s-6.12-2.76-6.12-6.12v-13.24h-.85c-11.64-8.32-19.85-21.57-18.61-36.75,1.5-18.41,17.75-36.49,42.24-35.97,1.69.04,3.12-1.22,3.26-2.9.15-1.8-1.24-3.38-3.05-3.42-10.02-.23-19.58,2.25-27.85,7.51-1.24.84-2.86.47-3.45-.99-1.37-3.4-1.98-7.45-1.64-11.66,1.18-14.48,16.81-24.49,36.43-22.89l28.5,2.33c11.27.92,20.12,5.45,26.48,12.36v-11.62c0-29.89-24.23-54.11-54.11-54.11l-332.38.08c-29.89,0-54.11,24.23-54.11,54.11v9.97c6.77-9.39,16.55-15.85,27.8-18.31l17.05-3.72c10.62-2.32,21.39-.43,30.33,5.3,9.11,5.85,15.47,15.22,17.91,26.39,2.53,11.58-6.38,23.76-19.45,26.62-11.14,2.43-22.84-3.51-27.82-14.13-1.01-2.05-2.74-1.93-3.95-1.67l-8.44,1.84c-.84.18-1.53.69-1.95,1.43-.46.81-.53,1.77-.2,2.75.54,1.44,2,2.17,3.63,1.81l3.44-.75c1.6-.35,2.84.1,4,1.44,8.84,10.97,21.04,16.01,32.63,13.48,6.05-1.32,11.36-4.2,15.36-8.34.52-.53,1.31-.83,2.13-.8.77.03,1.46.36,1.9.9,3.86,4.79,6.2,9.75,7.58,16.06,3.59,16.44-2,32.78-13.33,43.67v13.65c0,3.17-2.59,5.76-5.76,5.76h0c-3.17,0-5.76-2.59-5.76-5.76v-13.64h-10.32v13.64c0,3.17-2.59,5.76-5.76,5.76s-5.76-2.59-5.76-5.76v-13.64h-47.37c-3.37-4.62-5.71-9.93-6.83-15.69-1.86-10.1,5.11-22.62,18.46-25.53.21-.05.42-.09.63-.13,12.33-2.35,24.6,5.98,27.35,18.57l1.54,7.06c.21.98.84,1.79,1.72,2.23.85.42,1.84.44,2.73.02,1.43-.71,2.08-2.05,1.74-3.6l-1.54-7.06c-3.45-15.81-18.78-26.39-34.17-23.57-6.02,1.14-11.49,3.86-15.81,7.88-.62.58-1.43.88-2.23.81-.55-.05-1.06-.27-1.47-.64v-13.9c0-.32-.01-.64-.02-.95-.01-.44-.04-.87-.08-1.3,0-.03,0-.06,0-.09-.04-.42-.08-.84-.14-1.25,0-.04-.01-.08-.02-.12-.05-.4-.12-.81-.19-1.21,0-.05-.02-.1-.03-.15-.07-.39-.15-.77-.24-1.16-.01-.06-.03-.12-.04-.18-.09-.37-.18-.74-.29-1.1-.02-.08-.04-.15-.07-.22-.1-.35-.21-.69-.32-1.04-.03-.09-.06-.18-.09-.27-.11-.33-.23-.65-.36-.97-.04-.11-.09-.21-.13-.32-.12-.3-.25-.6-.38-.89-.06-.13-.12-.26-.18-.38-.12-.27-.25-.53-.38-.79-.08-.16-.16-.31-.25-.47-.12-.23-.24-.46-.37-.68-.11-.2-.23-.39-.35-.59-.11-.18-.21-.36-.32-.53-.17-.27-.35-.53-.53-.8-.07-.1-.13-.2-.2-.29-1.03-1.47-2.21-2.84-3.5-4.09,0,0,0,0,0,0-4.94-4.74-11.64-7.66-19.03-7.66h-.1c-15.18,0-27.49,12.31-27.49,27.49v143.04c0,15.18,12.31,27.49,27.49,27.49h.1c15.18,0,27.49-12.31,27.49-27.49v-10.51h440.55v10.46c0,15.21,12.33,27.54,27.54,27.54h.93c15.21,0,27.54-12.33,27.54-27.54v-142.32c0-15.21-12.33-27.54-27.54-27.54ZM287.32,137.96v66.81c-5.25,4.48-11.78,7.95-19.16,10.05v14.67c0,3.08-2.52,5.6-5.6,5.6s-5.6-2.52-5.6-5.6v-12.63c-1.81.16-3.65.25-5.52.25-1.52,0-3.02-.06-4.51-.17v12.55c0,3.08-2.52,5.6-5.6,5.6s-5.6-2.52-5.6-5.6v-14.38c-8.98-2.36-16.76-6.72-22.61-12.46,4.46-9.51,5.77-20.31,3.45-30.96-1.45-6.64-3.91-11.85-7.98-16.89-.79-.98-2.02-1.58-3.37-1.65-1.32-.07-2.55.4-3.46,1.24v-.33c0-.97.05-1.93.13-2.88,4.29-4.86,6.67-11.04,6.21-17.26,8.43-12.33,24.49-20.49,43.32-20.49,15.18,0,28.55,5.35,37.56,13.91-1.09,3.35-1.69,6.92-1.69,10.63ZM367.69,197.79c-5.74,2.67-12.2,4.05-19.22,4.05-5.49,0-10.64-2.22-14.5-6.25-4.09-4.27-6.29-10.16-6.03-16.18.51-11.43,10.15-20.39,21.94-20.39h5.97c.92,0,1.78-.4,2.35-1.1.6-.73.82-1.7.62-2.68-.22-1.51-1.48-2.53-3.15-2.53h-5.79c-15.31,0-28.25,12.62-28.25,27.55,0,12.68,8.44,23.71,20.55,26.83,1.23.27,2.08,1.36,2.08,2.65,0,2.08-.24,4.11-.71,6.05h-12.36v13.34c0,3.33-2.72,6.05-6.05,6.05s-6.05-2.72-6.05-6.05v-13.34h-10.84v13.34c0,3.33-2.72,6.05-6.05,6.05s-6.05-2.72-6.05-6.05v-13.34h-6.05c-.51-2.08-.77-4.28-.77-6.58v-71.25c0-17.81,14.41-32.29,32.12-32.29h22.46c14.65,0,27.04,5.14,35.68,13.9-1.13.82-2.2,1.72-3.21,2.7-5.59,5.45-8.67,12.78-8.67,20.64v54.88ZM436.7,214.24c-.56.84-1.15,1.34-1.88,1.55h-20.08v13.34c0,3.33-2.72,6.05-6.05,6.05s-6.05-2.72-6.05-6.05v-13.34h-10.84v13.34c0,3.33-2.72,6.05-6.05,6.05s-6.05-2.72-6.05-6.05v-13.34h-10.03v-72.88c0-7.32,2.87-14.14,8.07-19.21,5.04-4.91,11.69-7.59,18.78-7.59.24,0,.49,0,.73,0,14.33.4,25.99,12.69,25.99,27.4h14.72c0-15.11,11.65-27.4,25.97-27.4,1.1,0,2.17.06,3.23.17-4.28,4.19-6.83,9.4-7.29,15.13-.36,4.43.25,8.78,1.77,12.56.49,1.22,1.46,2.13,2.67,2.5,1.25.38,2.62.16,3.71-.57,6.76-4.3,14.67-6.74,23.02-7.15.11.77.19,1.55.24,2.34-10.56.51-20.33,4.47-27.79,11.36-7.55,6.98-12.34,16.59-13.14,26.39-.62,7.56,1.05,15.06,4.65,21.87-7.15,2.29-13.63,6.99-18.33,13.51ZM444.93,215.79c3.76-4.13,8.78-7.16,14.39-8.42,2.37,3.05,5.18,5.88,8.38,8.42h-22.78Z"/><path d="M539.66,140.25c-1.03,0-2.08-.1-3.12-.32-3.25-.66-6.13-2.3-8.11-4.61-2.15-2.5-3.04-5.63-2.44-8.56.36-1.75,2.06-2.87,3.81-2.52,1.75.36,2.88,2.06,2.52,3.81-.27,1.33.52,2.49,1.01,3.06,1.04,1.21,2.67,2.11,4.49,2.48,1.82.37,3.68.18,5.11-.53.68-.34,1.86-1.1,2.13-2.42.36-1.75,2.06-2.87,3.81-2.52,1.75.36,2.88,2.06,2.52,3.81-.6,2.94-2.64,5.46-5.59,6.93-1.85.92-3.96,1.39-6.14,1.39Z"/><path d="M505.32,132.6c-1.01,0-2.04-.1-3.08-.31-7-1.43-11.73-7.34-10.55-13.17.36-1.75,2.07-2.87,3.81-2.52,1.75.36,2.88,2.06,2.52,3.81-.47,2.3,2.05,4.84,5.5,5.55,3.46.7,6.77-.65,7.23-2.95.36-1.75,2.07-2.87,3.81-2.52,1.75.36,2.88,2.06,2.52,3.81-1.01,4.97-6,8.31-11.78,8.31Z"/><path d="M124.76,451.08h-49.38c-8.64,0-15.64-7-15.64-15.64h0c0-8.64,7-15.64,15.64-15.64h41.84c1.85,0,2.47-.74,2.47-2.35v-.37c0-1.73-.87-2.35-2.47-2.35h-24.6c-24.97,0-34.86-10.26-34.86-29.67v-3.58c0-22.5,12.98-31.15,35.11-31.15h42.83c8.64,0,15.64,7,15.64,15.64v.74c0,8.64-7,15.64-15.64,15.64h-36.4c-1.98,0-2.84.99-2.84,2.35v.5c0,1.48.62,2.72,2.84,2.72h27.44c20.52,0,31.27,11.13,31.27,25.96v6.43c0,16.44-9.15,30.78-33.25,30.78Z"/><path d="M226.62,451.7h-12.98c-35.6,0-43.88-9.39-43.88-43.39v-15.2c0-33.87,8.28-43.39,43.88-43.39h12.98c33,0,44.38,9.52,44.38,43.39v15.2c0,33.99-8.9,43.39-44.38,43.39ZM234.16,397.73c0-7.05-2.6-11.62-11.62-11.62h-4.82c-7.29,0-11.62,2.84-11.62,11.62v5.35c0,8.65,2.6,11.74,11.62,11.74h4.82c9.02,0,11.62-4.82,11.62-11.74v-5.35Z"/><path d="M350.11,430.56h-27.32v2.29c0,10.14-8.22,18.36-18.36,18.36h0c-10.14,0-18.36-8.22-18.36-18.36v-64.15c0-10.14,8.22-18.36,18.36-18.36h45.92c20.4,0,34.24,9.89,34.24,36.71v8.04c0,21.14-10.38,35.48-34.49,35.48ZM347.64,387.14c0-6.06-1.98-6.8-7.42-6.8h-17.43v19.84h17.43c5.32,0,7.42-1.48,7.42-5.93v-7.11Z"/><path d="M461.62,432.67v-18.42h-23.24v18.42c0,10.24-8.3,18.54-18.54,18.54h0c-10.24,0-18.54-8.3-18.54-18.54v-63.78c0-10.24,8.3-18.54,18.54-18.54h0c10.24,0,18.54,8.3,18.54,18.54v12.24h23.24v-12.24c0-10.24,8.3-18.54,18.54-18.54h.12c10.24,0,18.54,8.3,18.54,18.54v63.78c0,10.24-8.3,18.54-18.54,18.54h-.12c-10.24,0-18.54-8.3-18.54-18.54Z"/><path d="M574.48,436h0s-24.48,0-24.48,0h0c0,8.4-6.81,15.2-15.2,15.2h-4.82c-8.4,0-15.2-6.81-15.2-15.2v-46.35c0-30.66,7.05-41.16,39.68-41.16h13.72c32.63,0,41.29,10.51,41.29,41.16v46.35c0,8.4-6.81,15.2-15.2,15.2h-4.57c-8.4,0-15.2-6.81-15.2-15.2ZM574.48,389.65c0-6.43-.99-8.28-6.67-8.28h-11.25c-5.56,0-6.55,1.85-6.55,8.28v14.22h24.48v-14.22Z"/><rect class="cls-1" width="667.11" height="508.73"/></g></svg>