<?xml version="1.0" encoding="UTF-8"?><svg id="_レイヤー_2" xmlns="http://www.w3.org/2000/svg" viewBox="0 0 667.11 508.73"><defs><style>.cls-1{fill:none;}.cls-2{fill:#5462e0;}.cls-3{fill:#29ca7a;}.cls-4{fill:#ff9200;}.cls-5{fill:#42bcff;}.cls-6{fill:#ea2173;}.cls-7{fill:#fb78b7;}.cls-8{fill:#fff;}.cls-9{fill:#5d89e2;}</style></defs><g id="_レイヤー_1-2"><path class="cls-2" d="M581.74,135.37h-.93c-14.84,0-26.94,11.75-27.51,26.45v-50.07c0-29.89-24.23-54.11-54.11-54.11l-332.38.08c-29.89,0-54.11,24.23-54.11,54.11v49.47c-.49-14.75-12.6-26.56-27.47-26.56h-.1c-15.18,0-27.49,12.31-27.49,27.49v143.04c0,15.18,12.31,27.49,27.49,27.49h.1c15.18,0,27.49-12.31,27.49-27.49v-10.51h440.55v10.46c0,15.21,12.33,27.54,27.54,27.54h.93c15.21,0,27.54-12.33,27.54-27.54v-142.32c0-15.21-12.33-27.54-27.54-27.54ZM112.72,253.84v-37.92l440.55-.08v38H112.72Z"/><polygon class="cls-9" points="553.35 253.84 112.72 253.84 112.72 215.92 553.28 215.77 553.35 253.84"/><path class="cls-7" d="M251.45,114.15c-27.85,0-49.66,17.85-49.66,40.63v22.57c0,18.21,14.04,33.25,33.96,38.49v14.38c0,3.08,2.52,5.6,5.6,5.6s5.6-2.52,5.6-5.6v-12.55c1.48.1,2.98.17,4.51.17,1.87,0,3.71-.09,5.52-.25v12.63c0,3.08,2.52,5.6,5.6,5.6s5.6-2.52,5.6-5.6v-14.67c19.29-5.49,32.78-20.32,32.78-38.2v-22.57c0-22.79-21.74-40.63-49.49-40.63Z"/><path class="cls-8" d="M241.91,153.71c-1.74,0-3.15-1.41-3.15-3.15,0-2.29-2.9-4.23-6.34-4.23s-6.34,1.94-6.34,4.23c0,1.74-1.41,3.15-3.15,3.15s-3.15-1.41-3.15-3.15c0-5.81,5.67-10.53,12.64-10.53s12.64,4.72,12.64,10.53c0,1.74-1.41,3.15-3.15,3.15Z"/><path class="cls-8" d="M279.81,153.71c-1.74,0-3.15-1.41-3.15-3.15,0-2.29-2.9-4.23-6.34-4.23s-6.34,1.94-6.34,4.23c0,1.74-1.41,3.15-3.15,3.15s-3.15-1.41-3.15-3.15c0-5.81,5.67-10.53,12.64-10.53s12.64,4.72,12.64,10.53c0,1.74-1.41,3.15-3.15,3.15Z"/><path class="cls-4" d="M343.9,105.72h-22.46c-17.71,0-32.12,14.49-32.12,32.29v71.25c0,2.3.27,4.51.77,6.58h6.05v13.34c0,3.33,2.72,6.05,6.05,6.05s6.05-2.72,6.05-6.05v-13.34h10.84v13.34c0,3.33,2.72,6.05,6.05,6.05s6.05-2.72,6.05-6.05v-13.34h12.36c.47-1.94.71-3.97.71-6.05,0-1.29-.86-2.38-2.08-2.65-12.11-3.12-20.56-14.15-20.56-26.83,0-14.93,12.94-27.55,28.25-27.55h5.79c1.67,0,2.93,1.02,3.15,2.53.2.98-.02,1.95-.62,2.68-.58.7-1.43,1.1-2.35,1.1h-5.97c-11.79,0-21.43,8.96-21.94,20.39-.25,6.02,1.95,11.92,6.03,16.18,3.86,4.03,9.01,6.25,14.5,6.25,12.92,0,23.99-4.65,32.02-13.46,7.99-8.77,12.21-20.8,12.21-34.8,0-28.21-20.06-47.91-48.79-47.91Z"/><path class="cls-8" d="M341.46,114.35c-5.85,0-10.92,3.75-13.51,9.27-2.58-5.51-7.66-9.27-13.51-9.27-8.46,0-15.32,7.85-15.32,17.54s6.86,17.54,15.32,17.54c5.85,0,10.92-3.75,13.51-9.27,2.58,5.51,7.66,9.27,13.51,9.27,8.46,0,15.32-7.85,15.32-17.54s-6.86-17.54-15.32-17.54Z"/><ellipse cx="337.37" cy="131.09" rx="6.85" ry="9.78"/><ellipse cx="310.52" cy="131.09" rx="6.85" ry="9.78"/><path class="cls-6" d="M463.96,116.14c-14.32,0-25.97,12.29-25.97,27.4h-14.72c0-14.71-11.66-27.01-25.99-27.4-.25,0-.49,0-.73,0-7.1,0-13.74,2.68-18.78,7.59-5.2,5.07-8.07,11.89-8.07,19.21v72.88h10.03v13.34c0,3.33,2.72,6.05,6.05,6.05s6.05-2.72,6.05-6.05v-13.34h10.84v13.34c0,3.33,2.72,6.05,6.05,6.05s6.05-2.72,6.05-6.05v-13.34h20.08c.72-.21,1.31-.71,1.88-1.55,6.82-9.46,17.38-15.09,28.29-15.09,2.07,0,3.62,1.36,3.88,3.37.22.98,0,2-.65,2.81-.7.88-1.8,1.38-3.02,1.38-7.95,0-15.24,3.55-20.26,9.08h46.44v-72.88c0-15.27-11.78-26.79-27.4-26.79Z"/><path class="cls-8" d="M440.71,154.4h-11.65c.52,1.38.82,2.96.82,4.64,0,5.4-3.07,9.78-6.85,9.78s-6.85-4.38-6.85-9.78c0-1.68.3-3.26.82-4.64h-14.8c.52,1.38.82,2.96.82,4.64,0,5.4-3.07,9.78-6.85,9.78s-6.85-4.38-6.85-9.78c0-1.68.3-3.26.82-4.64h-5.57c-.49,1.72-.76,3.54-.76,5.45,0,9.69,6.86,17.54,15.32,17.54,5.85,0,10.92-3.75,13.51-9.27,2.58,5.51,7.66,9.27,13.51,9.27,8.46,0,15.32-7.85,15.32-17.54,0-1.9-.27-3.73-.76-5.45Z"/><path d="M423.03,168.82c3.78,0,6.85-4.38,6.85-9.78,0-1.68-.3-3.26-.82-4.64h-12.05c-.52,1.38-.82,2.96-.82,4.64,0,5.4,3.07,9.78,6.85,9.78Z"/><path d="M396.19,168.82c3.78,0,6.85-4.38,6.85-9.78,0-1.68-.3-3.26-.82-4.64h-12.05c-.52,1.38-.82,2.96-.82,4.64,0,5.4,3.07,9.78,6.85,9.78Z"/><path class="cls-3" d="M112.71,162.34v13.9c.41.37.92.59,1.47.64.8.07,1.62-.22,2.23-.81,4.32-4.02,9.79-6.74,15.81-7.88,15.39-2.81,30.72,7.76,34.17,23.57l1.54,7.06c.34,1.55-.31,2.9-1.74,3.6-.89.41-1.88.4-2.73-.02-.88-.44-1.51-1.25-1.72-2.23l-1.54-7.06c-2.75-12.59-15.01-20.92-27.35-18.57-.21.04-.43.08-.63.13-13.35,2.91-20.32,15.44-18.46,25.53,1.12,5.75,3.46,11.07,6.83,15.69h47.37v13.64c0,3.17,2.59,5.76,5.76,5.76s5.76-2.59,5.76-5.76v-13.64h10.32v13.64c0,3.17,2.59,5.76,5.76,5.76h0c3.17,0,5.76-2.59,5.76-5.76v-13.65c11.32-10.89,16.91-27.23,13.33-43.67-1.38-6.32-3.72-11.27-7.58-16.06-.43-.54-1.13-.87-1.9-.9-.82-.04-1.62.26-2.13.8-4,4.14-9.31,7.02-15.36,8.34-11.59,2.53-23.79-2.51-32.63-13.48-1.16-1.34-2.4-1.78-4-1.44l-3.44.75c-1.64.36-3.1-.37-3.63-1.81-.33-.97-.26-1.94.2-2.75.42-.74,1.11-1.25,1.95-1.43l8.44-1.84c1.21-.26,2.94-.38,3.95,1.67,4.98,10.63,16.68,16.56,27.82,14.13,13.07-2.85,21.98-15.04,19.45-26.62-2.44-11.17-8.8-20.54-17.91-26.39-8.94-5.74-19.71-7.62-30.33-5.3l-17.05,3.72c-12.08,2.64-22.47,9.89-29.24,20.42-3.68,5.71-6.02,12-6.99,18.48,5.21,5,8.46,12.03,8.46,19.83Z"/><path class="cls-8" d="M183.1,118.47c-1.63-8.77-9.16-14.71-16.82-13.29-5.29.99-9.25,5.24-10.66,10.66-3.27-4.55-8.49-7.09-13.78-6.11-7.65,1.43-12.53,9.69-10.9,18.45,1.63,8.77,9.16,14.71,16.82,13.29,5.29-.99,9.25-5.24,10.66-10.66,3.27,4.55,8.49,7.09,13.78,6.11,7.65-1.43,12.53-9.69,10.9-18.45Z"/><ellipse cx="150.55" cy="125.29" rx="6.3" ry="9" transform="translate(-20.41 29.7) rotate(-10.56)"/><ellipse cx="175.57" cy="120.62" rx="6.3" ry="9" transform="translate(-19.13 34.21) rotate(-10.56)"/><path class="cls-5" d="M470.99,215.77h.86v13.24c0,3.37,2.76,6.12,6.12,6.12s6.12-2.76,6.12-6.12v-13.24h10.98v13.24c0,3.37,2.76,6.12,6.12,6.12s6.12-2.76,6.12-6.12v-13.24h45.96v-52.86c0-8.5,3.85-16.1,9.91-21.15-4.65-16.83-16.9-29.15-36.36-30.74l-28.5-2.33c-19.62-1.6-35.25,8.41-36.43,22.89-.34,4.2.27,8.25,1.64,11.66.59,1.46,2.2,1.83,3.45.99,8.27-5.26,17.84-7.74,27.85-7.51,1.81.04,3.2,1.62,3.05,3.42-.14,1.68-1.57,2.94-3.26,2.9-24.49-.52-40.74,17.56-42.24,35.97-1.24,15.19,6.97,28.44,18.61,36.75Z"/><path class="cls-8" d="M539.66,140.25c-1.03,0-2.08-.1-3.12-.32-3.25-.66-6.13-2.3-8.11-4.61-2.15-2.5-3.04-5.63-2.44-8.56.36-1.75,2.06-2.87,3.81-2.52,1.75.36,2.88,2.06,2.52,3.81-.27,1.33.52,2.49,1.01,3.06,1.04,1.21,2.67,2.11,4.49,2.48,1.82.37,3.68.18,5.11-.53.68-.34,1.86-1.1,2.13-2.42.36-1.75,2.06-2.87,3.81-2.52,1.75.36,2.88,2.06,2.52,3.81-.6,2.94-2.64,5.46-5.59,6.93-1.85.92-3.96,1.39-6.14,1.39Z"/><path class="cls-8" d="M505.32,132.6c-1.01,0-2.04-.1-3.08-.31-7-1.43-11.73-7.34-10.55-13.17.36-1.75,2.07-2.87,3.81-2.52,1.75.36,2.88,2.06,2.52,3.81-.47,2.3,2.05,4.84,5.5,5.55,3.46.7,6.77-.65,7.23-2.95.36-1.75,2.07-2.87,3.81-2.52,1.75.36,2.88,2.06,2.52,3.81-1.01,4.97-6,8.31-11.78,8.31Z"/><path class="cls-2" d="M124.76,451.08h-49.38c-8.64,0-15.64-7-15.64-15.64h0c0-8.64,7-15.64,15.64-15.64h41.84c1.85,0,2.47-.74,2.47-2.35v-.37c0-1.73-.87-2.35-2.47-2.35h-24.6c-24.97,0-34.86-10.26-34.86-29.67v-3.58c0-22.5,12.98-31.15,35.11-31.15h42.83c8.64,0,15.64,7,15.64,15.64v.74c0,8.64-7,15.64-15.64,15.64h-36.4c-1.98,0-2.84.99-2.84,2.35v.5c0,1.48.62,2.72,2.84,2.72h27.44c20.52,0,31.27,11.12,31.27,25.96v6.43c0,16.44-9.15,30.78-33.25,30.78Z"/><path class="cls-2" d="M226.62,451.7h-12.98c-35.6,0-43.88-9.39-43.88-43.39v-15.2c0-33.87,8.28-43.39,43.88-43.39h12.98c33,0,44.38,9.52,44.38,43.39v15.2c0,33.99-8.9,43.39-44.38,43.39ZM234.16,397.73c0-7.05-2.6-11.62-11.62-11.62h-4.82c-7.29,0-11.62,2.84-11.62,11.62v5.35c0,8.65,2.6,11.74,11.62,11.74h4.82c9.02,0,11.62-4.82,11.62-11.74v-5.35Z"/><path class="cls-2" d="M350.11,430.56h-27.32v2.29c0,10.14-8.22,18.36-18.36,18.36h0c-10.14,0-18.36-8.22-18.36-18.36v-64.15c0-10.14,8.22-18.36,18.36-18.36h45.92c20.4,0,34.24,9.89,34.24,36.71v8.04c0,21.14-10.38,35.48-34.49,35.48ZM347.64,387.14c0-6.06-1.98-6.8-7.42-6.8h-17.43v19.84h17.43c5.32,0,7.42-1.48,7.42-5.93v-7.11Z"/><path class="cls-2" d="M461.62,432.67v-18.42h-23.24v18.42c0,10.24-8.3,18.54-18.54,18.54h0c-10.24,0-18.54-8.3-18.54-18.54v-63.78c0-10.24,8.3-18.54,18.54-18.54h0c10.24,0,18.54,8.3,18.54,18.54v12.24h23.24v-12.24c0-10.24,8.3-18.54,18.54-18.54h.12c10.24,0,18.54,8.3,18.54,18.54v63.78c0,10.24-8.3,18.54-18.54,18.54h-.12c-10.24,0-18.54-8.3-18.54-18.54Z"/><path class="cls-2" d="M574.48,436h0s-24.48,0-24.48,0h0c0,8.4-6.81,15.2-15.2,15.2h-4.82c-8.4,0-15.2-6.81-15.2-15.2v-46.35c0-30.66,7.05-41.16,39.68-41.16h13.72c32.63,0,41.29,10.51,41.29,41.16v46.35c0,8.4-6.81,15.2-15.2,15.2h-4.57c-8.4,0-15.2-6.81-15.2-15.2ZM574.48,389.65c0-6.43-.99-8.28-6.67-8.28h-11.25c-5.56,0-6.55,1.85-6.55,8.28v14.22h24.48v-14.22Z"/><rect class="cls-1" width="667.11" height="508.73"/></g></svg>