<?xml version="1.0" encoding="UTF-8"?><svg id="_レイヤー_2" xmlns="http://www.w3.org/2000/svg" viewBox="0 0 616.21 145.31"><defs><style>.cls-1{fill:none;}.cls-2{fill:#fff;}</style></defs><g id="_レイヤー_1-2"><rect class="cls-1" width="616.21" height="145.31"/><path class="cls-2" d="M285.41,105.25h-31.52c-5.51,0-9.98-4.47-9.98-9.98h0c0-5.51,4.47-9.98,9.98-9.98h26.7c1.18,0,1.58-.47,1.58-1.5v-.24c0-1.1-.55-1.5-1.58-1.5h-15.7c-15.94,0-22.25-6.55-22.25-18.93v-2.29c0-14.36,8.28-19.88,22.4-19.88h27.34c5.51,0,9.98,4.47,9.98,9.98v.47c0,5.51-4.47,9.98-9.98,9.98h-23.23c-1.26,0-1.81.63-1.81,1.5v.32c0,.95.39,1.74,1.81,1.74h17.51c13.1,0,19.96,7.1,19.96,16.57v4.1c0,10.49-5.84,19.64-21.22,19.64Z"/><path class="cls-2" d="M350.42,105.65h-8.28c-22.72,0-28.01-6-28.01-27.69v-9.7c0-21.62,5.29-27.69,28.01-27.69h8.28c21.06,0,28.32,6.07,28.32,27.69v9.7c0,21.7-5.68,27.69-28.32,27.69ZM355.24,71.2c0-4.5-1.66-7.42-7.42-7.42h-3.08c-4.65,0-7.42,1.81-7.42,7.42v3.41c0,5.52,1.66,7.49,7.42,7.49h3.08c5.76,0,7.42-3.08,7.42-7.49v-3.41Z"/><path class="cls-2" d="M429.24,92.16h-17.43v1.46c0,6.47-5.25,11.72-11.72,11.72h0c-6.47,0-11.72-5.25-11.72-11.72v-40.94c0-6.47,5.25-11.72,11.72-11.72h29.31c13.02,0,21.85,6.31,21.85,23.43v5.13c0,13.49-6.63,22.64-22.01,22.64ZM427.66,64.45c0-3.87-1.26-4.34-4.73-4.34h-11.12v12.67h11.12c3.39,0,4.73-.95,4.73-3.79v-4.54Z"/><path class="cls-2" d="M500.4,93.5v-11.75h-14.83v11.75c0,6.54-5.3,11.83-11.83,11.83h0c-6.54,0-11.83-5.3-11.83-11.83v-40.71c0-6.54,5.3-11.83,11.83-11.83h0c6.54,0,11.83,5.3,11.83,11.83v7.81h14.83v-7.81c0-6.54,5.3-11.83,11.83-11.83h.08c6.54,0,11.83,5.3,11.83,11.83v40.71c0,6.54-5.3,11.83-11.83,11.83h-.08c-6.54,0-11.83-5.3-11.83-11.83Z"/><path class="cls-2" d="M572.43,95.63h0s-15.62,0-15.62,0h0c0,5.36-4.34,9.7-9.7,9.7h-3.08c-5.36,0-9.7-4.34-9.7-9.7v-29.58c0-19.56,4.5-26.27,25.32-26.27h8.76c20.83,0,26.35,6.71,26.35,26.27v29.58c0,5.36-4.34,9.7-9.7,9.7h-2.92c-5.36,0-9.7-4.34-9.7-9.7ZM572.43,66.05c0-4.1-.63-5.29-4.26-5.29h-7.18c-3.55,0-4.18,1.18-4.18,5.29v9.07h15.62v-9.07Z"/><path class="cls-2" d="M126.92,42.87c-2.18,0-4.08,1.4-5.04,3.46-.96-2.06-2.86-3.46-5.04-3.46-3.16,0-5.72,2.93-5.72,6.55s2.56,6.55,5.72,6.55c2.18,0,4.08-1.4,5.04-3.46.96,2.06,2.86,3.46,5.04,3.46,3.16,0,5.72-2.93,5.72-6.55s-2.56-6.55-5.72-6.55ZM115.37,52.76c-1.41,0-2.56-1.63-2.56-3.65s1.14-3.65,2.56-3.65,2.56,1.63,2.56,3.65-1.14,3.65-2.56,3.65ZM125.4,52.76c-1.41,0-2.56-1.63-2.56-3.65s1.14-3.65,2.56-3.65,2.56,1.63,2.56,3.65-1.14,3.65-2.56,3.65Z"/><path class="cls-2" d="M163.97,57.82h-4.35c.2.52.31,1.11.31,1.73,0,1.37-.53,2.56-1.31,3.18-.03.03-.06.05-.1.07-.35.25-.73.39-1.15.39-.18,0-.35-.03-.52-.07-1.16-.34-2.04-1.81-2.04-3.58,0-.63.11-1.22.31-1.73h0s-1.24,0-1.24,0h-4.29c.2.52.31,1.11.31,1.73,0,.48-.07.93-.18,1.35-.01.05-.03.1-.04.15-.23.71-.61,1.3-1.08,1.68-.08.07-.16.13-.25.18-.15.09-.31.16-.48.21-.08.02-.17.04-.25.06-.09.01-.17.02-.26.02h0c-.26,0-.52-.06-.76-.16-.08-.04-.16-.08-.23-.12-.15-.09-.3-.21-.43-.34s-.26-.28-.38-.45c-.12-.17-.22-.35-.31-.54-.05-.1-.09-.2-.13-.3-.2-.52-.31-1.11-.31-1.74h0c0-.35.04-.69.1-1,.04-.21.1-.41.16-.6.01-.04.03-.09.04-.13h-2.08c-.18.64-.28,1.32-.28,2.03,0,3.62,2.56,6.55,5.72,6.55,2.18,0,4.08-1.4,5.04-3.46.96,2.06,2.86,3.46,5.04,3.46,3.16,0,5.72-2.93,5.72-6.55,0-.71-.1-1.39-.28-2.03Z"/><path class="cls-2" d="M89.77,57.3c-.65,0-1.18-.53-1.18-1.18,0-.86-1.08-1.58-2.37-1.58s-2.37.72-2.37,1.58c0,.65-.53,1.18-1.18,1.18s-1.18-.53-1.18-1.18c0-2.17,2.12-3.93,4.72-3.93s4.72,1.76,4.72,3.93c0,.65-.53,1.18-1.18,1.18Z"/><path class="cls-2" d="M103.91,57.3c-.65,0-1.18-.53-1.18-1.18,0-.86-1.08-1.58-2.37-1.58s-2.37.72-2.37,1.58c0,.65-.53,1.18-1.18,1.18s-1.18-.53-1.18-1.18c0-2.17,2.12-3.93,4.72-3.93s4.72,1.76,4.72,3.93c0,.65-.53,1.18-1.18,1.18Z"/><path class="cls-2" d="M67.82,44.42c-.61-3.27-3.42-5.49-6.28-4.96-1.97.37-3.45,1.95-3.98,3.98-1.22-1.7-3.17-2.65-5.14-2.28-2.86.53-4.68,3.62-4.07,6.89.61,3.27,3.42,5.49,6.28,4.96,1.97-.37,3.45-1.95,3.98-3.98,1.22,1.7,3.17,2.65,5.14,2.28,2.86-.53,4.68-3.62,4.07-6.89ZM56.28,50.27c-1.28.24-2.59-1.05-2.93-2.87-.34-1.82.42-3.49,1.7-3.73,1.28-.24,2.59,1.05,2.93,2.87.34,1.82-.42,3.49-1.7,3.73ZM65.62,48.53c-1.28.24-2.59-1.05-2.93-2.87-.34-1.82.42-3.49,1.7-3.73s2.59,1.05,2.93,2.87-.42,3.49-1.7,3.73Z"/><path class="cls-2" d="M216.6,50.73h-.35c-2.54,0-4.86.92-6.65,2.45-.09.07-.17.15-.25.22-.05.04-.09.09-.14.13-.08.08-.16.16-.24.23-.05.05-.09.09-.13.14-.08.08-.16.17-.24.26-.04.04-.08.08-.12.13-.11.13-.22.26-.32.39-.04.05-.08.11-.12.16-.06.08-.13.17-.19.25-.05.07-.1.14-.15.22-.05.07-.09.14-.14.21-.05.08-.1.16-.15.24-.04.06-.08.13-.11.2-.05.09-.1.17-.14.26-.03.06-.06.12-.09.18-.05.09-.09.19-.14.29-.03.05-.05.11-.07.16-.05.11-.09.21-.14.32-.01.04-.03.07-.04.11-.16.42-.3.85-.41,1.29,0,0,0,.02,0,.03-.03.13-.06.27-.09.4,0,.04-.02.08-.02.11-.02.13-.04.26-.06.39,0,.05-.01.09-.02.14-.02.13-.03.26-.04.39,0,.05,0,.09-.01.14-.01.13-.02.26-.03.4,0,.15-.01.29-.01.44v19.73h-17.15v4.94c0,1.26-1.03,2.29-2.29,2.29s-2.29-1.03-2.29-2.29v-4.94h-4.1v4.94c0,1.26-1.03,2.29-2.29,2.29s-2.29-1.03-2.29-2.29v-4.94h-.32c-4.35-3.1-7.41-8.05-6.95-13.72.56-6.87,6.62-13.62,15.77-13.42.63.01,1.17-.46,1.22-1.08.05-.67-.46-1.26-1.14-1.28-3.74-.09-7.31.84-10.4,2.8-.46.31-1.07.18-1.29-.37-.51-1.27-.74-2.78-.61-4.35.44-5.41,6.28-9.14,13.6-8.54l10.64.87c4.21.34,7.51,2.03,9.88,4.61v-4.34c0-11.15-9.04-20.2-20.2-20.2l-124.06.03c-11.15,0-20.2,9.04-20.2,20.2v3.72c2.53-3.5,6.18-5.92,10.37-6.83l6.36-1.39c3.96-.86,7.98-.16,11.32,1.98,3.4,2.18,5.77,5.68,6.68,9.85.94,4.32-2.38,8.87-7.26,9.93-4.16.91-8.53-1.31-10.38-5.27-.38-.76-1.02-.72-1.47-.62l-3.15.69c-.31.07-.57.26-.73.53-.17.3-.2.66-.08,1.03.2.54.75.81,1.36.68l1.29-.28c.6-.13,1.06.04,1.49.54,3.3,4.1,7.85,5.98,12.18,5.03,2.26-.49,4.24-1.57,5.73-3.11.19-.2.49-.31.8-.3.29.01.55.14.71.34,1.44,1.79,2.31,3.64,2.83,6,1.34,6.14-.75,12.24-4.97,16.3v5.09c0,1.18-.97,2.15-2.15,2.15h0c-1.18,0-2.15-.97-2.15-2.15v-5.09h-3.85v5.09c0,1.18-.97,2.15-2.15,2.15s-2.15-.97-2.15-2.15v-5.09h-17.68c-1.26-1.72-2.13-3.71-2.55-5.85-.69-3.77,1.91-8.44,6.89-9.53.08-.02.16-.03.24-.05,4.6-.88,9.18,2.23,10.21,6.93l.58,2.64c.08.36.31.67.64.83.32.16.69.16,1.02,0,.53-.26.78-.77.65-1.35l-.57-2.64c-1.29-5.9-7.01-9.85-12.75-8.8-2.25.43-4.29,1.44-5.9,2.94-.23.22-.53.33-.83.3-.21-.02-.4-.1-.55-.24v-5.19c0-.12,0-.24,0-.36,0-.16-.02-.32-.03-.48,0-.01,0-.02,0-.03-.01-.16-.03-.31-.05-.47,0-.02,0-.03,0-.04-.02-.15-.04-.3-.07-.45,0-.02,0-.04-.01-.06-.03-.14-.06-.29-.09-.43,0-.02-.01-.05-.02-.07-.03-.14-.07-.27-.11-.41,0-.03-.02-.06-.02-.08-.04-.13-.08-.26-.12-.39-.01-.03-.02-.07-.03-.1-.04-.12-.09-.24-.13-.36-.02-.04-.03-.08-.05-.12-.05-.11-.09-.22-.14-.33-.02-.05-.04-.1-.07-.14-.05-.1-.09-.2-.14-.3-.03-.06-.06-.12-.09-.17-.05-.09-.09-.17-.14-.26-.04-.07-.09-.15-.13-.22-.04-.07-.08-.13-.12-.2-.06-.1-.13-.2-.2-.3-.02-.04-.05-.07-.07-.11-.39-.55-.82-1.06-1.31-1.52,0,0,0,0,0,0-1.84-1.77-4.34-2.86-7.1-2.86h-.04c-5.67,0-10.26,4.59-10.26,10.26v53.39c0,5.67,4.59,10.26,10.26,10.26h.04c5.67,0,10.26-4.59,10.26-10.26v-3.92h164.44v3.91c0,5.68,4.6,10.28,10.28,10.28h.35c5.68,0,10.28-4.6,10.28-10.28v-53.12c0-5.68-4.6-10.28-10.28-10.28ZM106.72,51.7v24.94c-1.96,1.67-4.4,2.97-7.15,3.75v5.48c0,1.15-.94,2.09-2.09,2.09s-2.09-.94-2.09-2.09v-4.71c-.68.06-1.36.09-2.06.09-.57,0-1.13-.02-1.68-.06v4.68c0,1.15-.94,2.09-2.09,2.09s-2.09-.94-2.09-2.09v-5.37c-3.35-.88-6.26-2.51-8.44-4.65,1.67-3.55,2.15-7.58,1.29-11.56-.54-2.48-1.46-4.42-2.98-6.31-.3-.37-.75-.59-1.26-.61-.49-.02-.95.15-1.29.46v-.12c0-.36.02-.72.05-1.07,1.6-1.81,2.49-4.12,2.32-6.44,3.15-4.6,9.14-7.65,16.17-7.65,5.67,0,10.66,2,14.02,5.19-.41,1.25-.63,2.58-.63,3.97ZM136.71,74.03c-2.14,1-4.56,1.51-7.18,1.51-2.05,0-3.97-.83-5.41-2.33-1.53-1.59-2.35-3.79-2.25-6.04.19-4.27,3.79-7.61,8.19-7.61h2.23c.34,0,.66-.15.88-.41.22-.27.31-.63.23-1-.08-.57-.55-.94-1.18-.94h-2.16c-5.72,0-10.55,4.71-10.55,10.28,0,4.73,3.15,8.85,7.67,10.02.46.1.78.51.78.99,0,.78-.09,1.53-.27,2.26h-4.61v4.98c0,1.24-1.02,2.26-2.26,2.26s-2.26-1.02-2.26-2.26v-4.98h-4.05v4.98c0,1.24-1.02,2.26-2.26,2.26s-2.26-1.02-2.26-2.26v-4.98h-2.26c-.19-.77-.29-1.6-.29-2.46v-26.59c0-6.65,5.38-12.05,11.99-12.05h8.38c5.47,0,10.09,1.92,13.32,5.19-.42.3-.82.64-1.2,1.01-2.09,2.03-3.24,4.77-3.24,7.7v20.48ZM162.47,80.17c-.21.32-.43.5-.7.58h-7.49v4.98c0,1.24-1.02,2.26-2.26,2.26s-2.26-1.02-2.26-2.26v-4.98h-4.05v4.98c0,1.24-1.02,2.26-2.26,2.26s-2.26-1.02-2.26-2.26v-4.98h-3.74v-27.2c0-2.73,1.07-5.28,3.01-7.17,1.88-1.83,4.36-2.83,7.01-2.83.09,0,.18,0,.27,0,5.35.15,9.7,4.74,9.7,10.23h5.49c0-5.64,4.35-10.23,9.69-10.23.41,0,.81.02,1.21.06-1.6,1.56-2.55,3.51-2.72,5.65-.14,1.66.09,3.28.66,4.69.18.45.55.79,1,.93.47.14.98.06,1.38-.21,2.52-1.6,5.48-2.52,8.59-2.67.04.29.07.58.09.87-3.94.19-7.59,1.67-10.37,4.24-2.82,2.6-4.6,6.19-4.9,9.85-.23,2.82.39,5.62,1.74,8.16-2.67.86-5.09,2.61-6.84,5.04ZM165.54,80.75c1.4-1.54,3.28-2.67,5.37-3.14.89,1.14,1.93,2.2,3.13,3.14h-8.5Z"/><path class="cls-2" d="M200.9,52.55c-.39,0-.78-.04-1.17-.12-1.21-.25-2.29-.86-3.03-1.72-.8-.93-1.13-2.1-.91-3.2.13-.65.77-1.07,1.42-.94.65.13,1.07.77.94,1.42-.1.49.19.93.38,1.14.39.45,1,.79,1.68.93.68.14,1.37.07,1.91-.2.25-.13.69-.41.79-.91.13-.65.77-1.07,1.42-.94.65.13,1.07.77.94,1.42-.22,1.1-.98,2.04-2.09,2.59-.69.34-1.48.52-2.29.52Z"/><path class="cls-2" d="M188.08,49.7c-.38,0-.76-.04-1.15-.12-2.61-.53-4.38-2.74-3.94-4.92.13-.65.77-1.07,1.42-.94.65.13,1.07.77.94,1.42-.18.86.77,1.81,2.05,2.07,1.29.26,2.53-.24,2.7-1.1.13-.65.77-1.07,1.42-.94.65.13,1.07.77.94,1.42-.38,1.85-2.24,3.1-4.4,3.1Z"/></g></svg>